<svg viewBox="0 0 28 27" xmlns="http://www.w3.org/2000/svg" xmlns:xlink="http://www.w3.org/1999/xlink" width="28.000000" height="27.000000" fill="none" customFrame="#000000">
	<path id="Shape" d="M8 8C10.2091 8 12 6.20914 12 4C12 1.79086 10.2091 0 8 0C5.79086 0 4 1.79086 4 4C4 6.20914 5.79086 8 8 8ZM9.60276e-16 12.5C9.60276e-16 11.1193 1.11929 10 2.5 10L8.87494 10C8.63286 10.6199 8.5 11.2944 8.5 12C8.5 13.8602 9.42345 15.5046 10.8369 16.5L8.5 16.5C6.95844 16.5 5.62056 17.372 4.95274 18.6497C3.03741 18.1574 1.81096 17.1981 1.05409 16.1101C-6.4373e-06 14.5949 9.60276e-16 13.0256 9.60276e-16 12.7508L9.60276e-16 12.5ZM23.0473 18.6497C24.9626 18.1574 26.189 17.1981 26.9459 16.1101C28 14.5949 28 13.0248 28 12.75L28 12.5C28 11.1193 26.8807 10 25.5 10L19.1251 10C19.3671 10.6199 19.5 11.2944 19.5 12C19.5 13.8602 18.5766 15.5046 17.1631 16.5L19.5 16.5C21.0416 16.5 22.3794 17.372 23.0473 18.6497ZM24 4C24 6.20914 22.2091 8 20 8C17.7909 8 16 6.20914 16 4C16 1.79086 17.7909 0 20 0C22.2091 0 24 1.79086 24 4ZM6 20.5C6 19.1193 7.11929 18 8.5 18L19.5 18C20.8807 18 22 19.1193 22 20.5L22 20.75C22 21.0248 22 22.5949 20.9459 24.1101C19.8462 25.691 17.7551 27 14 27C10.2449 27 8.1538 25.691 7.05409 24.1101C5.99999 22.5949 6 21.0256 6 20.7508L6 20.5ZM14 16C16.2091 16 18 14.2091 18 12C18 9.79086 16.2091 8 14 8C11.7909 8 10 9.79086 10 12C10 14.2091 11.7909 16 14 16Z" fill="rgb(255,254.745,254.745)" fill-rule="nonzero" />
</svg>
