<svg viewBox="0 0 26 26.9971" xmlns="http://www.w3.org/2000/svg" xmlns:xlink="http://www.w3.org/1999/xlink" width="26.000000" height="26.997070" fill="none" customFrame="#000000">
	<path id="Shape" d="M10.8952 0.773692C12.1088 -0.257899 13.8912 -0.257896 15.1049 0.773693L24.8549 9.06115C25.5813 9.67865 26 10.584 26 11.5375L26 24.497C26 25.8777 24.8807 26.997 23.5 26.997L19.5 26.997C18.1193 26.997 17 25.8777 17 24.497L17 17.9969C17 16.8953 16.1093 16.0017 15.0088 15.997L10.9912 15.997C9.89066 16.0017 9 16.8953 9 17.9969L9 24.497C9 25.8777 7.88071 26.997 6.5 26.997L2.5 26.997C1.11929 26.997 0 25.8777 0 24.497L0 11.5375C0 10.584 0.418675 9.67865 1.14515 9.06115L10.8952 0.773692Z" fill="rgb(255,254.745,254.745)" fill-rule="nonzero" />
</svg>
