<svg viewBox="0 0 20.0078 14.7314" xmlns="http://www.w3.org/2000/svg" xmlns:xlink="http://www.w3.org/1999/xlink" width="20.007812" height="14.731445" fill="none" customFrame="#000000">
	<path id="Shape" d="M4.3439 0.292893C4.73442 0.683418 4.73442 1.31658 4.3439 1.70711C1.2187 4.83231 1.2187 9.89926 4.3439 13.0245C4.73442 13.415 4.73442 14.0482 4.3439 14.4387C3.95338 14.8292 3.32021 14.8292 2.92969 14.4387C-0.976562 10.5324 -0.976562 4.19914 2.92969 0.292893C3.32021 -0.0976311 3.95338 -0.0976311 4.3439 0.292893ZM17.0755 0.292893C20.9817 4.19914 20.9817 10.5324 17.0755 14.4387C16.6849 14.8292 16.0518 14.8292 15.6613 14.4387C15.2707 14.0482 15.2707 13.415 15.6613 13.0245C18.7865 9.89926 18.7865 4.83231 15.6613 1.70711C15.2707 1.31658 15.2707 0.683418 15.6613 0.292893C16.0518 -0.0976311 16.6849 -0.0976311 17.0755 0.292893ZM7.31055 3.16627C7.70107 3.55679 7.70107 4.18996 7.31055 4.58048C5.77959 6.11145 5.77959 8.59363 7.31055 10.1246C7.70107 10.5151 7.70107 11.1483 7.31055 11.5388C6.92003 11.9293 6.28686 11.9293 5.89634 11.5388C3.58433 9.22679 3.58433 5.47828 5.89634 3.16627C6.28686 2.77574 6.92003 2.77574 7.31055 3.16627ZM14.2689 3.16627C16.5809 5.47828 16.5809 9.22679 14.2689 11.5388C13.8783 11.9293 13.2452 11.9293 12.8547 11.5388C12.4641 11.1483 12.4641 10.5151 12.8547 10.1246C14.3856 8.59363 14.3856 6.11145 12.8547 4.58048C12.4641 4.18996 12.4641 3.55679 12.8547 3.16627C13.2452 2.77574 13.8783 2.77574 14.2689 3.16627ZM10.0826 5.93569C10.911 5.93569 11.5826 6.60726 11.5826 7.43569C11.5826 8.26412 10.911 8.93569 10.0826 8.93569C9.25418 8.93569 8.5826 8.26412 8.5826 7.43569C8.5826 6.60726 9.25418 5.93569 10.0826 5.93569Z" fill="rgb(255,254.745,254.745)" fill-rule="nonzero" />
</svg>
