<svg viewBox="0 0 19.9375 19.084" xmlns="http://www.w3.org/2000/svg" xmlns:xlink="http://www.w3.org/1999/xlink" width="19.937500" height="19.083984" fill="none" customFrame="#000000">
	<path id="Shape" d="M1.76854 3.83029C4.70955 -0.0853145 10.7982 -1.2247 15.1324 1.47017C19.4123 4.13119 20.9863 9.24726 19.2334 14.0475C17.5782 18.5801 13.217 20.376 10.0737 18.0959C8.89624 17.2418 8.43979 16.1712 8.21916 14.4321L8.11377 13.4442L8.06836 13.0467C7.94573 12.1127 7.75731 11.6942 7.36404 11.475C6.82845 11.1765 6.47182 11.1695 5.76855 11.4421L5.41744 11.5877L5.23871 11.6656C4.22493 12.1059 3.55054 12.2606 2.69755 12.0819L2.49729 12.0347L2.33376 11.9881C-0.455204 11.1239 -0.868294 7.34093 1.76854 3.83029ZM14.6966 8.55237C14.8752 9.2192 15.5607 9.61493 16.2275 9.43625C16.8943 9.25758 17.2901 8.57215 17.1114 7.90532C16.9327 7.23849 16.2473 6.84276 15.5805 7.02144C14.9136 7.20012 14.5179 7.88554 14.6966 8.55237ZM15.1912 12.041C15.3698 12.7079 16.0553 13.1036 16.7221 12.9249C17.3889 12.7462 17.7847 12.0608 17.606 11.394C17.4273 10.7272 16.7419 10.3314 16.075 10.5101C15.4082 10.6888 15.0125 11.3742 15.1912 12.041ZM12.7181 5.54969C12.8967 6.21652 13.5822 6.61225 14.249 6.43357C14.9158 6.25489 15.3116 5.56947 15.1329 4.90264C14.9542 4.23581 14.2688 3.84008 13.6019 4.01875C12.9351 4.19743 12.5394 4.88285 12.7181 5.54969ZM12.6896 14.5481C12.8683 15.2149 13.5537 15.6106 14.2205 15.432C14.8873 15.2533 15.2831 14.5679 15.1044 13.901C14.9257 13.2342 14.2403 12.8385 13.5735 13.0171C12.9066 13.1958 12.5109 13.8812 12.6896 14.5481ZM9.19266 4.57809C9.37134 5.24493 10.0568 5.64065 10.7236 5.46198C11.3904 5.2833 11.7862 4.59788 11.6075 3.93105C11.4288 3.26421 10.7434 2.86848 10.0765 3.04716C9.40971 3.22584 9.01398 3.91126 9.19266 4.57809Z" fill="rgb(255,254.745,254.745)" fill-rule="nonzero" />
</svg>
