<svg width="851.000000" height="725.000000" viewBox="0 0 851 725" fill="none" xmlns="http://www.w3.org/2000/svg" xmlns:xlink="http://www.w3.org/1999/xlink">
	<path id="Vector" d="M381.11 602.29C376.69 602.29 373.11 599 373.11 594.58C373.11 533.18 373.11 125.69 373.11 118C373.11 109.68 366.64 103.21 358.32 103.21C350 103.21 499.72 103.21 491.41 103.21C483.09 103.21 476.62 109.68 476.62 118C476.62 125.69 476.62 533.17 476.62 594.58C476.62 599 473.04 602.29 468.62 602.29L381.11 602.29Z" fill="#666CFF" fill-opacity="1.000000" fill-rule="evenodd"/>
	<path id="Vector" d="M303.38 -0.3C311.27 -0.3 317.66 6.09 317.66 13.98C317.66 62.87 278.35 102.57 229.61 103.21C229.21 103.21 228.82 103.21 228.42 103.21L745.62 103.21C753.51 103.21 759.9 96.82 759.9 88.93C759.9 39.65 719.95 -0.3 670.66 -0.3L303.38 -0.3Z" fill="#666CFF" fill-opacity="1.000000" fill-rule="evenodd"/>
	<path id="Vector" d="M303.38 -0.3L206.75 -0.3C179.56 -0.3 152.64 5.05 127.52 15.46C102.41 25.86 79.58 41.11 60.36 60.34C41.14 79.56 25.89 102.38 15.48 127.5C5.08 152.62 -0.28 179.54 -0.28 206.73C-0.28 233.91 5.08 260.83 15.48 285.95C25.89 311.07 41.14 333.89 60.36 353.12C79.58 372.34 102.41 387.59 127.52 397.99C152.64 408.4 179.57 413.75 206.75 413.75L346.63 413.75C351.05 413.75 354.63 410.17 354.63 405.75L354.63 318.24C354.63 313.82 351.05 310.24 346.63 310.24L206.75 310.25C193.16 310.25 179.69 307.57 167.13 302.37C154.57 297.17 143.16 289.54 133.55 279.93C123.94 270.31 116.31 258.9 111.11 246.34C105.91 233.78 103.23 220.32 103.23 206.73C103.23 193.13 105.91 179.67 111.11 167.11C116.31 154.55 123.94 143.14 133.55 133.53C143.16 123.91 154.57 116.29 167.13 111.08C179.69 105.88 193.16 103.2 206.75 103.2L229.61 103.21C278.35 102.57 317.66 62.87 317.66 13.98C317.66 6.09 311.27 -0.3 303.38 -0.3Z" fill="#878CFF" fill-opacity="1.000000" fill-rule="nonzero"/>
	<path id="Vector" d="M642.98 310.24L503.11 310.24C498.69 310.24 495.11 313.82 495.11 318.24L495.11 405.75C495.11 410.17 498.69 413.75 503.11 413.75L642.98 413.75C656.58 413.75 670.04 416.42 682.6 421.62C695.16 426.83 706.57 434.45 716.18 444.06C725.8 453.68 733.42 465.09 738.63 477.65C743.83 490.21 746.51 503.67 746.51 517.26C746.51 530.86 743.83 544.32 738.63 556.88C733.42 569.44 725.8 580.85 716.18 590.46C706.57 600.08 695.16 607.7 682.6 612.91C670.04 618.11 656.58 620.78 642.98 620.78L104.58 620.78C96.69 620.78 90.3 627.17 90.3 635.06C90.3 684.34 130.25 724.29 179.53 724.29L642.98 724.29C670.17 724.29 697.09 718.94 722.21 708.53C747.33 698.13 770.15 682.88 789.37 663.65C808.6 644.43 823.85 621.61 834.25 596.49C844.66 571.37 850.01 544.45 850.01 517.26C850.01 490.08 844.66 463.16 834.25 438.04C823.85 412.92 808.6 390.1 789.37 370.88C770.15 351.65 747.33 336.4 722.21 326C697.09 315.59 670.17 310.24 642.98 310.24Z" fill="#878CFF" fill-opacity="1.000000" fill-rule="evenodd"/>
</svg>
