<svg viewBox="0 0 552 352" xmlns="http://www.w3.org/2000/svg" xmlns:xlink="http://www.w3.org/1999/xlink" width="552.000000" height="352.000000" fill="none" customFrame="#000000">
	<defs>
		<clipPath id="clipPath_0">
			<rect width="550.000000" height="350.000000" x="1.000000" y="1.000000" fill="rgb(255,255,255)" />
		</clipPath>
	</defs>
	<g id="Group 4">
		<g id="Frame 1" customFrame="url(#clipPath_0)">
			<rect id="Frame 1" width="550.000000" height="350.000000" x="1.000000" y="1.000000" />
			<rect id="Rectangle 2" width="550.000000" height="350.000000" x="1.000000" y="1.000000" rx="10.000000" fill="rgb(10,10,10)" />
			<rect id="Rectangle 2" width="551.000000" height="351.000000" x="0.500000" y="0.500000" rx="10.500000" stroke="rgb(60,58,61)" stroke-width="1" />
			<path id="SpaceTheme" d="M15.7521 25.6401Q14.8293 25.6401 14.1628 25.4043Q13.4997 25.165 13.0656 24.7959Q12.6315 24.4233 12.3717 24.0029Q12.112 23.5825 11.9855 23.2134Q11.859 22.8408 11.818 22.6016Q11.777 22.3623 11.777 22.3623L13.4416 22.3623Q13.4416 22.3623 13.4826 22.5537Q13.527 22.7417 13.6501 23.0151Q13.7765 23.2886 14.0363 23.562Q14.2961 23.8354 14.7233 24.0234Q15.1505 24.2114 15.8068 24.2114Q16.7878 24.2114 17.3415 23.75Q17.8952 23.2886 17.8952 22.5742Q17.8952 21.959 17.4816 21.6172Q17.068 21.272 16.2716 21.0908L14.8976 20.7695Q14.1286 20.5986 13.4757 20.2705Q12.8263 19.9424 12.4264 19.3818Q12.0265 18.8213 12.0265 17.9668Q12.0265 17.0439 12.4811 16.3809Q12.9391 15.7144 13.7423 15.3589Q14.549 15 15.5846 15Q16.5929 15 17.2492 15.3008Q17.9088 15.6016 18.2985 16.0356Q18.6916 16.4697 18.8795 16.9106Q19.071 17.3516 19.1256 17.6523Q19.1803 17.9531 19.1803 17.9531L17.5876 17.9531Q17.5876 17.9531 17.5294 17.7241Q17.4748 17.4917 17.2697 17.1841Q17.068 16.8765 16.6544 16.6475Q16.2409 16.415 15.5436 16.415Q14.5763 16.415 14.0978 16.8628Q13.6227 17.3105 13.6227 17.8574Q13.6227 18.3872 14.0294 18.7051Q14.4362 19.0195 15.1232 19.1733L16.5929 19.522Q17.403 19.7031 18.0661 20.0688Q18.7326 20.4312 19.1256 21.0259Q19.5187 21.6206 19.5187 22.4751Q19.5187 23.3433 19.0915 24.0645Q18.6642 24.7856 17.8234 25.2129Q16.9826 25.6401 15.7521 25.6401ZM21.183 28.2446L21.183 18.0796L22.7792 18.0796L22.7792 19.187L22.8646 19.187Q23.0048 18.9751 23.2782 18.6812Q23.5516 18.3872 24.0199 18.165Q24.4882 17.9395 25.2025 17.9395Q26.0297 17.9395 26.6586 18.271Q27.2875 18.5991 27.7011 19.1528Q28.1146 19.7031 28.3163 20.3901Q28.5214 21.0771 28.5214 21.7915Q28.5214 22.5024 28.3163 23.1895Q28.1146 23.8765 27.7011 24.4302Q27.2875 24.9805 26.6586 25.312Q26.0297 25.6401 25.2025 25.6401Q24.4882 25.6401 24.0199 25.418Q23.5516 25.1924 23.2782 24.8984Q23.0048 24.6045 22.8646 24.3926L22.7792 24.3926L22.7792 28.2446L21.183 28.2446ZM22.7792 21.7915Q22.7792 22.4204 23.0082 22.9946Q23.2406 23.5688 23.6952 23.9414Q24.1532 24.3105 24.8368 24.3105Q25.5375 24.3105 25.9921 23.9414Q26.4467 23.5688 26.6791 22.9946Q26.9115 22.4204 26.9115 21.7915Q26.9115 21.1592 26.6791 20.585Q26.4467 20.0107 25.9921 19.6416Q25.5375 19.269 24.8368 19.269Q24.1532 19.269 23.6952 19.6416Q23.2406 20.0107 23.0082 20.585Q22.7792 21.1592 22.7792 21.7915ZM33.3769 17.9395Q34.0776 17.9395 34.5458 18.165Q35.0175 18.3872 35.2944 18.6812Q35.5747 18.9751 35.7011 19.187L35.7866 19.187L35.7866 18.0796L37.3828 18.0796L37.3828 25.5L35.7866 25.5L35.7866 24.3926L35.7011 24.3926Q35.5747 24.6045 35.2944 24.8984Q35.0175 25.1924 34.5458 25.418Q34.0776 25.6401 33.3769 25.6401Q32.5395 25.6401 31.914 25.312Q31.2919 24.9805 30.8715 24.4302Q30.4511 23.8765 30.246 23.1895Q30.0444 22.5024 30.0444 21.7915Q30.0444 21.0771 30.246 20.3901Q30.4511 19.7031 30.8715 19.1528Q31.2919 18.5991 31.914 18.271Q32.5395 17.9395 33.3769 17.9395ZM33.729 19.269Q33.0419 19.269 32.5805 19.6416Q32.1191 20.0107 31.8867 20.585Q31.6577 21.1592 31.6577 21.7915Q31.6577 22.4204 31.8867 22.9946Q32.1191 23.5688 32.5805 23.9414Q33.0419 24.3105 33.729 24.3105Q34.4125 24.3105 34.8671 23.9414Q35.3251 23.5688 35.5541 22.9946Q35.7866 22.4204 35.7866 21.7915Q35.7866 21.1592 35.5541 20.585Q35.3251 20.0107 34.8671 19.6416Q34.4125 19.269 33.729 19.269ZM42.856 25.6401Q41.9194 25.6401 41.2188 25.312Q40.5181 24.9805 40.0567 24.4302Q39.5952 23.8765 39.3628 23.1895Q39.1304 22.5024 39.1304 21.7915Q39.1304 21.0771 39.3628 20.3901Q39.5952 19.7031 40.0567 19.1528Q40.5181 18.5991 41.2188 18.271Q41.9194 17.9395 42.856 17.9395Q43.7788 17.9395 44.3872 18.2129Q44.999 18.4863 45.3613 18.8931Q45.7271 19.2964 45.9082 19.7031Q46.0894 20.1099 46.1372 20.3901Q46.1885 20.6704 46.1885 20.6704L44.6743 20.6704Q44.6743 20.6704 44.6128 20.4619Q44.5513 20.25 44.3667 19.9697Q44.1856 19.6895 43.8267 19.481Q43.4712 19.269 42.8696 19.269Q42.1553 19.269 41.6802 19.6279Q41.2051 19.9834 40.959 20.5576Q40.7129 21.1318 40.7129 21.7915Q40.7129 22.4478 40.959 23.022Q41.2051 23.5962 41.6802 23.9551Q42.1553 24.3105 42.8696 24.3105Q43.4712 24.3105 43.8267 24.1021Q44.1856 23.8901 44.3667 23.6099Q44.5513 23.3296 44.6128 23.1211Q44.6743 22.9092 44.6743 22.9092L46.1885 22.9092Q46.1885 22.9092 46.1372 23.1895Q46.0894 23.4697 45.9082 23.8765Q45.7271 24.2832 45.3613 24.6899Q44.999 25.0933 44.3872 25.3667Q43.7788 25.6401 42.856 25.6401ZM51.3672 25.6401Q50.4307 25.6401 49.7505 25.312Q49.0703 24.9805 48.6294 24.4302Q48.1885 23.8765 47.9697 23.1895Q47.7544 22.5024 47.7544 21.7915Q47.7544 21.0908 47.9629 20.4038Q48.1748 19.7168 48.6089 19.1597Q49.043 18.5991 49.7163 18.271Q50.3896 17.9395 51.2988 17.9395Q52.2764 17.9395 53.0249 18.3804Q53.7768 18.8213 54.2041 19.6826Q54.6313 20.5439 54.6313 21.8188L54.6313 22.2529L49.3677 22.2529Q49.4224 23.1074 49.9385 23.7227Q50.458 24.3379 51.3672 24.3379Q51.8867 24.3379 52.2217 24.1636Q52.5566 23.9893 52.7378 23.7671Q52.9224 23.5415 52.9976 23.374Q53.0762 23.2031 53.0762 23.2031L54.5596 23.2031Q54.5596 23.2031 54.4878 23.4492Q54.4194 23.6953 54.2314 24.061Q54.0434 24.4233 53.6914 24.7891Q53.3428 25.1514 52.7685 25.3975Q52.1943 25.6401 51.3672 25.6401ZM49.3813 21.1318L53.0898 21.1318Q53.0351 20.1509 52.5088 19.6895Q51.9824 19.228 51.2851 19.228Q50.499 19.228 49.9795 19.7407Q49.4634 20.25 49.3813 21.1318Z" fill="rgb(134.938,139.74,255)" fill-rule="nonzero" />
			<path id="SpaceTheme" d="M59.0545 25.5L59.0545 17.4644L55.9168 17.4644L55.9168 15.1401L64.8787 15.1401L64.8787 17.4644L61.741 17.4644L61.741 25.5L59.0545 25.5ZM66.2088 25.5L66.2088 14.8599L68.868 14.8599L68.868 19.1289L68.9364 19.1289Q69.0936 18.8794 69.3363 18.606Q69.5824 18.3325 69.9857 18.1377Q70.3924 17.9395 71.0111 17.9395Q71.9202 17.9395 72.4432 18.353Q72.9696 18.7666 73.1917 19.3887Q73.4173 20.0107 73.4173 20.6431L73.4173 25.5L70.7581 25.5L70.7581 21.1729Q70.7581 20.7695 70.5462 20.4277Q70.3377 20.0825 69.8216 20.0825Q69.2747 20.0825 69.0697 20.4346Q68.868 20.7832 68.868 21.1729L68.868 25.5L66.2088 25.5ZM78.5854 25.6401Q77.5635 25.6401 76.8115 25.3188Q76.063 24.9976 75.5742 24.4438Q75.0854 23.8901 74.8462 23.1963Q74.6069 22.5024 74.6069 21.7744Q74.6069 21.0771 74.8359 20.3901Q75.0683 19.7031 75.5434 19.1528Q76.0219 18.5991 76.7568 18.271Q77.4917 17.9395 78.5 17.9395Q79.5903 17.9395 80.4175 18.4009Q81.2446 18.8623 81.706 19.7373Q82.1675 20.6123 82.1675 21.8599L82.1675 22.4614L77.2832 22.4614Q77.3242 22.9365 77.6523 23.3022Q77.9804 23.6646 78.5854 23.6646Q79.0469 23.6646 79.2827 23.5039Q79.5219 23.3433 79.604 23.1826Q79.6894 23.022 79.6894 23.022L82.1264 23.022Q82.1264 23.022 82.0547 23.2886Q81.9863 23.5552 81.7881 23.9414Q81.5932 24.3242 81.2002 24.7173Q80.8105 25.1069 80.1714 25.3735Q79.5356 25.6401 78.5854 25.6401ZM77.2695 20.9917L79.6347 20.9917Q79.6211 20.4175 79.2964 20.1304Q78.9751 19.8433 78.4453 19.8433Q77.9975 19.8433 77.6523 20.1235Q77.3105 20.4038 77.2695 20.9917ZM83.3587 25.5L83.3587 18.0796L86.0179 18.0796L86.0179 19.0469L86.1033 19.0469Q86.3836 18.5684 86.8724 18.2539Q87.3611 17.9395 88.1028 17.9395Q88.9436 17.9395 89.4187 18.3257Q89.8973 18.7085 90.1058 19.228L90.1468 19.228Q90.3177 18.9614 90.6116 18.6606Q90.9056 18.3599 91.3533 18.1514Q91.8011 17.9395 92.4163 17.9395Q93.1717 17.9395 93.6331 18.2778Q94.0945 18.6128 94.3099 19.1118Q94.5286 19.6074 94.5286 20.1099L94.5286 25.5L91.8694 25.5L91.8694 20.9644Q91.8694 20.5986 91.6712 20.3423Q91.4764 20.0825 91.0594 20.0825Q90.6526 20.0825 90.4612 20.3423Q90.2732 20.5986 90.2732 20.9644L90.2732 25.5L87.6141 25.5L87.6141 20.9644Q87.6141 20.5986 87.4158 20.3423Q87.221 20.0825 86.8006 20.0825Q86.3973 20.0825 86.2059 20.3423Q86.0179 20.5986 86.0179 20.9644L86.0179 25.5L83.3587 25.5ZM99.6974 25.6401Q98.6755 25.6401 97.9235 25.3188Q97.175 24.9976 96.6862 24.4438Q96.1974 23.8901 95.9582 23.1963Q95.7189 22.5024 95.7189 21.7744Q95.7189 21.0771 95.9479 20.3901Q96.1803 19.7031 96.6554 19.1528Q97.1339 18.5991 97.8688 18.271Q98.6037 17.9395 99.612 17.9395Q100.702 17.9395 101.529 18.4009Q102.357 18.8623 102.818 19.7373Q103.279 20.6123 103.279 21.8599L103.279 22.4614L98.3952 22.4614Q98.4362 22.9365 98.7643 23.3022Q99.0924 23.6646 99.6974 23.6646Q100.159 23.6646 100.395 23.5039Q100.634 23.3433 100.716 23.1826Q100.801 23.022 100.801 23.022L103.238 23.022Q103.238 23.022 103.167 23.2886Q103.098 23.5552 102.9 23.9414Q102.705 24.3242 102.312 24.7173Q101.923 25.1069 101.283 25.3735Q100.648 25.6401 99.6974 25.6401ZM98.3815 20.9917L100.747 20.9917Q100.733 20.4175 100.408 20.1304Q100.087 19.8433 99.5573 19.8433Q99.1095 19.8433 98.7643 20.1235Q98.4225 20.4038 98.3815 20.9917Z" fill="rgb(134.938,139.74,255)" fill-rule="nonzero" />
			<path id="SpaceTheme" d="M59.0545 25.5L59.0545 17.4644L55.9168 17.4644L55.9168 15.1401L64.8787 15.1401L64.8787 17.4644L61.741 17.4644L61.741 25.5L59.0545 25.5ZM66.2088 25.5L66.2088 14.8599L68.868 14.8599L68.868 19.1289L68.9364 19.1289Q69.0936 18.8794 69.3363 18.606Q69.5824 18.3325 69.9857 18.1377Q70.3924 17.9395 71.0111 17.9395Q71.9202 17.9395 72.4432 18.353Q72.9696 18.7666 73.1917 19.3887Q73.4173 20.0107 73.4173 20.6431L73.4173 25.5L70.7581 25.5L70.7581 21.1729Q70.7581 20.7695 70.5462 20.4277Q70.3377 20.0825 69.8216 20.0825Q69.2747 20.0825 69.0697 20.4346Q68.868 20.7832 68.868 21.1729L68.868 25.5L66.2088 25.5ZM78.5854 25.6401Q77.5635 25.6401 76.8115 25.3188Q76.063 24.9976 75.5742 24.4438Q75.0854 23.8901 74.8462 23.1963Q74.6069 22.5024 74.6069 21.7744Q74.6069 21.0771 74.8359 20.3901Q75.0683 19.7031 75.5434 19.1528Q76.0219 18.5991 76.7568 18.271Q77.4917 17.9395 78.5 17.9395Q79.5903 17.9395 80.4175 18.4009Q81.2446 18.8623 81.706 19.7373Q82.1675 20.6123 82.1675 21.8599L82.1675 22.4614L77.2832 22.4614Q77.3242 22.9365 77.6523 23.3022Q77.9804 23.6646 78.5854 23.6646Q79.0469 23.6646 79.2827 23.5039Q79.5219 23.3433 79.604 23.1826Q79.6894 23.022 79.6894 23.022L82.1264 23.022Q82.1264 23.022 82.0547 23.2886Q81.9863 23.5552 81.7881 23.9414Q81.5932 24.3242 81.2002 24.7173Q80.8105 25.1069 80.1714 25.3735Q79.5356 25.6401 78.5854 25.6401ZM77.2695 20.9917L79.6347 20.9917Q79.6211 20.4175 79.2964 20.1304Q78.9751 19.8433 78.4453 19.8433Q77.9975 19.8433 77.6523 20.1235Q77.3105 20.4038 77.2695 20.9917ZM83.3587 25.5L83.3587 18.0796L86.0179 18.0796L86.0179 19.0469L86.1033 19.0469Q86.3836 18.5684 86.8724 18.2539Q87.3611 17.9395 88.1028 17.9395Q88.9436 17.9395 89.4187 18.3257Q89.8973 18.7085 90.1058 19.228L90.1468 19.228Q90.3177 18.9614 90.6116 18.6606Q90.9056 18.3599 91.3533 18.1514Q91.8011 17.9395 92.4163 17.9395Q93.1717 17.9395 93.6331 18.2778Q94.0945 18.6128 94.3099 19.1118Q94.5286 19.6074 94.5286 20.1099L94.5286 25.5L91.8694 25.5L91.8694 20.9644Q91.8694 20.5986 91.6712 20.3423Q91.4764 20.0825 91.0594 20.0825Q90.6526 20.0825 90.4612 20.3423Q90.2732 20.5986 90.2732 20.9644L90.2732 25.5L87.6141 25.5L87.6141 20.9644Q87.6141 20.5986 87.4158 20.3423Q87.221 20.0825 86.8006 20.0825Q86.3973 20.0825 86.2059 20.3423Q86.0179 20.5986 86.0179 20.9644L86.0179 25.5L83.3587 25.5ZM99.6974 25.6401Q98.6755 25.6401 97.9235 25.3188Q97.175 24.9976 96.6862 24.4438Q96.1974 23.8901 95.9582 23.1963Q95.7189 22.5024 95.7189 21.7744Q95.7189 21.0771 95.9479 20.3901Q96.1803 19.7031 96.6554 19.1528Q97.1339 18.5991 97.8688 18.271Q98.6037 17.9395 99.612 17.9395Q100.702 17.9395 101.529 18.4009Q102.357 18.8623 102.818 19.7373Q103.279 20.6123 103.279 21.8599L103.279 22.4614L98.3952 22.4614Q98.4362 22.9365 98.7643 23.3022Q99.0924 23.6646 99.6974 23.6646Q100.159 23.6646 100.395 23.5039Q100.634 23.3433 100.716 23.1826Q100.801 23.022 100.801 23.022L103.238 23.022Q103.238 23.022 103.167 23.2886Q103.098 23.5552 102.9 23.9414Q102.705 24.3242 102.312 24.7173Q101.923 25.1069 101.283 25.3735Q100.648 25.6401 99.6974 25.6401ZM98.3815 20.9917L100.747 20.9917Q100.733 20.4175 100.408 20.1304Q100.087 19.8433 99.5573 19.8433Q99.1095 19.8433 98.7643 20.1235Q98.4225 20.4038 98.3815 20.9917Z" fill="rgb(102,108.12,255)" fill-rule="nonzero" />
			<rect id="Rectangle 16" width="530.000000" height="262.000000" x="11.000000" y="38.000000" rx="8.000000" fill="rgb(17,17,17)" />
			<rect id="Rectangle 33" width="510.000000" height="45.000000" x="21.000000" y="89.000000" rx="8.000000" fill="rgb(102,108.12,255)" />
			<rect id="Rectangle 35" width="510.000000" height="45.000000" x="21.000000" y="149.000000" rx="8.000000" fill="rgb(30,30,30)" />
			<rect id="Rectangle 34" width="510.000000" height="45.000000" x="21.000000" y="209.000000" rx="8.000000" fill="rgb(30,30,30)" />
			<rect id="Rectangle 7" width="18.000000" height="18.000000" x="523.000000" y="11.000000" rx="4.000000" fill="rgb(217,217,217)" fill-opacity="0" />
			<rect id="Rectangle 9" width="18.000000" height="18.000000" x="500.000000" y="11.000000" rx="4.000000" fill="rgb(217,217,217)" fill-opacity="0" />
			<path id="Vector" d="M0.46875 0C0.208984 0 0 0.222917 0 0.5C0 0.777083 0.208984 1 0.46875 1L9.53125 1C9.79102 1 10 0.777083 10 0.5C10 0.222917 9.79102 0 9.53125 0L0.46875 0Z" fill="rgb(149,152,157)" fill-rule="nonzero" transform="matrix(1,0,0,-1,504,25)" />
			<path id="Vector" d="M0.602647 0C0.26868 0 0 0.286592 0 0.642823C0 0.999055 0.26868 1.28565 0.602647 1.28565L12.2538 1.28565C12.5878 1.28565 12.8565 0.999055 12.8565 0.642823C12.8565 0.286592 12.5878 0 12.2538 0L0.602647 0Z" fill="rgb(149,152,157)" fill-rule="nonzero" transform="matrix(0.707107,0.707107,0.707107,-0.707107,527,15.9089)" />
			<path id="Vector" d="M0.602647 0C0.26868 0 0 0.286592 0 0.642823C0 0.999055 0.26868 1.28565 0.602647 1.28565L12.2538 1.28565C12.5878 1.28565 12.8565 0.999055 12.8565 0.642823C12.8565 0.286592 12.5878 0 12.2538 0L0.602647 0Z" fill="rgb(149,152,157)" fill-rule="nonzero" transform="matrix(0.707107,-0.707107,-0.707107,-0.707107,527.909,25)" />
			<rect id="Rectangle 18" width="530.000000" height="30.000000" x="11.000000" y="311.000000" rx="8.000000" fill="rgb(30,30,30)" />
			<rect id="Rectangle 19" width="39.000000" height="20.000000" x="497.000000" y="316.000000" rx="4.000000" fill="rgb(102,108.12,255)" />
			<rect id="Rectangle 21" width="39.000000" height="20.000000" x="453.000000" y="316.000000" rx="4.000000" fill="rgb(17,17,17)" />
			<path id="Vector" d="M522.728 326.706C523.091 326.315 523.091 325.681 522.728 325.291L518.085 320.293C517.722 319.902 517.133 319.902 516.77 320.293C516.407 320.683 516.407 321.317 516.77 321.708L519.832 325L510.929 325C510.415 325 510 325.447 510 326C510 326.553 510.415 327 510.929 327L519.829 327L516.773 330.292C516.41 330.683 516.41 331.317 516.773 331.707C517.136 332.098 517.725 332.098 518.088 331.707L522.731 326.709L522.728 326.706Z" fill="rgb(255,255,255)" fill-rule="nonzero" />
			<path id="Vector" d="M12.7279 6.70597C13.0907 6.3155 13.0907 5.68137 12.7279 5.2909L8.08483 0.292854C7.72208 -0.0976181 7.13299 -0.0976181 6.77024 0.292854C6.4075 0.683327 6.4075 1.31745 6.77024 1.70793L9.8318 5.00039L0.928623 5.00039C0.414979 5.00039 0 5.44709 0 6C0 6.55291 0.414979 6.99961 0.928623 6.99961L9.8289 6.99961L6.77315 10.2921C6.4104 10.6825 6.4104 11.3167 6.77315 11.7071C7.13589 12.0976 7.72498 12.0976 8.08773 11.7071L12.7308 6.7091L12.7279 6.70597Z" fill="rgb(255,255,255)" fill-rule="nonzero" transform="matrix(-1,-6.97359e-16,6.97359e-16,-1,479,332)" />
			<rect id="Rectangle 23" width="20.000000" height="20.000000" x="16.000000" y="316.000000" rx="4.000000" fill="rgb(17,17,17)" />
			<rect id="Rectangle 25" width="20.000000" height="20.000000" x="41.000000" y="316.000000" rx="4.000000" fill="rgb(17,17,17)" />
			<rect id="Rectangle 26" width="20.000000" height="20.000000" x="66.000000" y="316.000000" rx="4.000000" fill="rgb(17,17,17)" />
			<rect id="Rectangle 27" width="20.000000" height="20.000000" x="91.000000" y="316.000000" rx="4.000000" fill="rgb(17,17,17)" />
			<path id="Vector" d="M28.25 326C28.25 326.52 28.2219 327.022 28.1727 327.5L23.8273 327.5C23.7758 327.022 23.75 326.52 23.75 326C23.75 325.48 23.7781 324.978 23.8273 324.5L28.1727 324.5C28.2242 324.978 28.25 325.48 28.25 326ZM28.925 324.5L31.8102 324.5C31.9344 324.98 32 325.482 32 326C32 326.518 31.9344 327.02 31.8102 327.5L28.925 327.5C28.9742 327.017 29 326.516 29 326C29 325.484 28.9742 324.983 28.925 324.5ZM31.5641 323.75L28.8289 323.75C28.5945 322.252 28.1305 320.998 27.5328 320.197C29.368 320.682 30.8609 322.013 31.5617 323.75L31.5641 323.75ZM28.0695 323.75L23.9305 323.75C24.0734 322.897 24.2938 322.142 24.5633 321.53C24.8094 320.977 25.0836 320.577 25.3484 320.323C25.6109 320.075 25.8289 320 26 320C26.1711 320 26.3891 320.075 26.6516 320.323C26.9164 320.577 27.1906 320.977 27.4367 321.53C27.7086 322.14 27.9266 322.895 28.0695 323.75ZM23.1711 323.75L20.4359 323.75C21.1391 322.013 22.6297 320.682 24.4672 320.197C23.8695 320.998 23.4055 322.252 23.1711 323.75ZM20.1898 324.5L23.075 324.5C23.0258 324.983 23 325.484 23 326C23 326.516 23.0258 327.017 23.075 327.5L20.1898 327.5C20.0656 327.02 20 326.518 20 326C20 325.482 20.0656 324.98 20.1898 324.5ZM24.5633 330.467C24.2914 329.858 24.0734 329.103 23.9305 328.25L28.0695 328.25C27.9266 329.103 27.7062 329.858 27.4367 330.467C27.1906 331.02 26.9164 331.421 26.6516 331.674C26.3891 331.925 26.1711 332 26 332C25.8289 332 25.6109 331.925 25.3484 331.677C25.0836 331.423 24.8094 331.023 24.5633 330.47L24.5633 330.467ZM23.1711 328.25C23.4055 329.748 23.8695 331.002 24.4672 331.803C22.6297 331.318 21.1391 329.987 20.4359 328.25L23.1711 328.25ZM31.5641 328.25C30.8609 329.987 29.3703 331.318 27.5352 331.803C28.1328 331.002 28.5945 329.748 28.8312 328.25L31.5641 328.25Z" fill="rgb(131,131,131)" fill-rule="nonzero" />
			<path id="Vector" d="M55.1741 321.76C55.1708 321.754 55.1653 321.749 55.1585 321.746C54.3805 321.395 53.5595 321.144 52.716 321.001C52.7083 320.999 52.7004 321 52.6933 321.004C52.6863 321.007 52.6805 321.012 52.6767 321.019C52.5649 321.219 52.4634 321.424 52.3726 321.634C51.4634 321.498 50.5385 321.498 49.6292 321.634C49.5378 321.423 49.4347 321.218 49.3204 321.019C49.3164 321.012 49.3106 321.007 49.3036 321.004C49.2966 321.001 49.2887 320.999 49.2811 321.001C48.4375 321.144 47.6164 321.394 46.8385 321.746C46.8318 321.749 46.8262 321.754 46.8224 321.76C45.2667 324.047 44.8405 326.277 45.0496 328.48C45.0502 328.486 45.0519 328.491 45.0545 328.496C45.0572 328.5 45.0609 328.505 45.0652 328.508C45.9711 329.168 46.9843 329.672 48.0616 329.998C48.0692 330.001 48.0773 330.001 48.0849 329.998C48.0924 329.996 48.099 329.991 48.1037 329.985C48.3351 329.675 48.5402 329.347 48.7167 329.004C48.7192 328.999 48.7206 328.994 48.7208 328.988C48.7211 328.983 48.7202 328.978 48.7182 328.973C48.7162 328.968 48.7132 328.964 48.7094 328.96C48.7056 328.956 48.701 328.953 48.6959 328.952C48.3726 328.83 48.0596 328.683 47.7599 328.513C47.7544 328.509 47.7498 328.505 47.7465 328.5C47.7433 328.494 47.7413 328.488 47.741 328.482C47.7406 328.476 47.7418 328.47 47.7444 328.464C47.747 328.458 47.7511 328.454 47.7561 328.45C47.819 328.403 47.8819 328.355 47.942 328.306C47.9473 328.302 47.9538 328.299 47.9606 328.298C47.9675 328.298 47.9745 328.298 47.9808 328.301C49.9446 329.184 52.0708 329.184 54.0114 328.301C54.0177 328.298 54.0248 328.297 54.0317 328.298C54.0387 328.299 54.0452 328.302 54.0507 328.306C54.1107 328.355 54.1737 328.403 54.237 328.45C54.2421 328.454 54.2461 328.458 54.2488 328.464C54.2515 328.47 54.2527 328.476 54.2524 328.482C54.2521 328.488 54.2502 328.494 54.2469 328.5C54.2437 328.505 54.2391 328.509 54.2337 328.513C53.9346 328.684 53.6214 328.831 53.2972 328.951C53.2922 328.953 53.2876 328.956 53.2838 328.96C53.28 328.963 53.277 328.968 53.2751 328.973C53.2731 328.978 53.2723 328.983 53.2726 328.988C53.2729 328.994 53.2743 328.999 53.2768 329.004C53.4563 329.345 53.661 329.673 53.8893 329.984C53.8939 329.991 53.9005 329.995 53.9081 329.998C53.9156 330.001 53.9238 330.001 53.9314 329.998C55.0107 329.673 56.0257 329.169 56.9327 328.508C56.9371 328.505 56.9408 328.501 56.9435 328.496C56.9462 328.491 56.9478 328.486 56.9483 328.481C57.1986 325.934 56.5293 323.721 55.1741 321.76ZM49.01 327.139C48.4188 327.139 47.9316 326.605 47.9316 325.949C47.9316 325.293 48.4093 324.759 49.01 324.759C49.6154 324.759 50.0979 325.298 50.0885 325.949C50.0885 326.605 49.6107 327.139 49.01 327.139ZM52.9974 327.139C52.4061 327.139 51.919 326.605 51.919 325.949C51.919 325.293 52.3967 324.759 52.9974 324.759C53.6028 324.759 54.0853 325.298 54.0758 325.949C54.0758 326.605 53.6028 327.139 52.9974 327.139Z" fill="rgb(131,131,131)" fill-rule="nonzero" />
			<path id="Vector" d="M74.0137 329.662C74.0137 329.712 73.9581 329.752 73.8879 329.752C73.8081 329.759 73.7524 329.719 73.7524 329.662C73.7524 329.613 73.8081 329.573 73.8782 329.573C73.9508 329.566 74.0137 329.605 74.0137 329.662ZM73.2613 329.551C73.2444 329.6 73.2927 329.657 73.3653 329.672C73.4282 329.697 73.5008 329.672 73.5153 329.623C73.5298 329.573 73.4839 329.516 73.4113 329.494C73.3484 329.476 73.2782 329.501 73.2613 329.551ZM74.3306 329.509C74.2605 329.526 74.2121 329.573 74.2194 329.63C74.2266 329.68 74.2895 329.712 74.3621 329.695C74.4323 329.677 74.4806 329.63 74.4734 329.581C74.4661 329.533 74.4008 329.501 74.3306 329.509ZM75.9226 320C72.5669 320 70 322.613 70 326.055C70 328.806 71.6887 331.161 74.1008 331.99C74.4105 332.047 74.5194 331.851 74.5194 331.69C74.5194 331.536 74.5121 330.687 74.5121 330.166C74.5121 330.166 72.8186 330.538 72.4629 329.427C72.4629 329.427 72.1871 328.705 71.7903 328.518C71.7903 328.518 71.2363 328.129 71.829 328.136C71.829 328.136 72.4314 328.186 72.7629 328.777C73.2927 329.734 74.1806 329.459 74.5266 329.295C74.5823 328.898 74.7395 328.623 74.9137 328.459C73.5613 328.305 72.1968 328.104 72.1968 325.717C72.1968 325.035 72.3806 324.692 72.7677 324.256C72.7048 324.094 72.4992 323.429 72.8306 322.571C73.3363 322.409 74.5 323.241 74.5 323.241C74.9839 323.102 75.504 323.03 76.0194 323.03C76.5347 323.03 77.0548 323.102 77.5387 323.241C77.5387 323.241 78.7024 322.407 79.2081 322.571C79.5395 323.432 79.3339 324.094 79.271 324.256C79.6581 324.695 79.8952 325.037 79.8952 325.717C79.8952 328.112 78.4702 328.303 77.1177 328.459C77.3403 328.655 77.529 329.027 77.529 329.61C77.529 330.447 77.5218 331.481 77.5218 331.685C77.5218 331.846 77.6331 332.042 77.9403 331.985C80.3597 331.161 82 328.806 82 326.055C82 322.613 79.2782 320 75.9226 320ZM72.3516 328.558C72.3202 328.583 72.3274 328.64 72.3685 328.687C72.4073 328.727 72.4629 328.744 72.4944 328.712C72.5258 328.687 72.5185 328.63 72.4774 328.583C72.4387 328.543 72.3831 328.526 72.3516 328.558ZM72.0903 328.357C72.0734 328.389 72.0976 328.429 72.146 328.454C72.1847 328.479 72.2331 328.471 72.25 328.437C72.2669 328.404 72.2427 328.365 72.1944 328.34C72.146 328.325 72.1073 328.332 72.0903 328.357ZM72.8742 329.241C72.8355 329.273 72.85 329.347 72.9056 329.394C72.9613 329.451 73.0314 329.459 73.0629 329.419C73.0944 329.387 73.0798 329.312 73.0314 329.265C72.9782 329.208 72.9056 329.201 72.8742 329.241ZM72.5984 328.876C72.5597 328.901 72.5597 328.965 72.5984 329.022C72.6371 329.079 72.7024 329.104 72.7339 329.079C72.7726 329.047 72.7726 328.982 72.7339 328.925C72.7 328.868 72.6371 328.844 72.5984 328.876Z" fill="rgb(131,131,131)" fill-rule="nonzero" />
			<path id="Vector" d="M100.519 320C100.947 320 101.293 320.335 101.293 320.75L101.293 321.587C101.332 321.591 101.368 321.596 101.407 321.603C101.416 321.605 101.424 321.605 101.433 321.608L102.594 321.814C103.014 321.889 103.292 322.28 103.215 322.686C103.138 323.091 102.734 323.363 102.316 323.288L101.167 323.084C100.411 322.977 99.7433 323.049 99.2742 323.23C98.8052 323.41 98.6166 323.659 98.5731 323.888C98.5247 324.139 98.561 324.28 98.6021 324.366C98.6456 324.458 98.7351 324.561 98.9116 324.676C99.3056 324.927 99.9101 325.091 100.693 325.292L100.764 325.311C101.455 325.489 102.301 325.705 102.93 326.103C103.273 326.321 103.597 326.616 103.798 327.029C104.003 327.448 104.047 327.917 103.953 328.416C103.786 329.307 103.152 329.902 102.367 330.214C102.035 330.345 101.675 330.43 101.293 330.472L101.293 331.25C101.293 331.665 100.947 332 100.519 332C100.091 332 99.7457 331.665 99.7457 331.25L99.7457 330.432C99.736 330.43 99.7239 330.43 99.7142 330.427L99.7094 330.427C99.1195 330.338 98.15 330.092 97.4972 329.811C97.1079 329.642 96.9314 329.199 97.1055 328.822C97.2796 328.445 97.7365 328.273 98.1258 328.442C98.6311 328.66 99.4628 328.876 99.9439 328.948C100.715 329.059 101.351 328.995 101.781 328.824C102.19 328.663 102.376 328.428 102.429 328.147C102.475 327.898 102.439 327.755 102.398 327.669C102.352 327.575 102.263 327.472 102.084 327.357C101.687 327.106 101.08 326.942 100.295 326.741L100.227 326.724C99.5378 326.546 98.6915 326.328 98.0629 325.93C97.7196 325.712 97.3981 325.414 97.1974 325.002C96.9943 324.582 96.9532 324.113 97.0499 323.614C97.224 322.719 97.9155 322.138 98.7012 321.835C99.0228 321.711 99.3758 321.627 99.7457 321.577L99.7457 320.75C99.7457 320.335 100.091 320 100.519 320Z" fill="rgb(131,131,131)" fill-rule="nonzero" />
			<rect id="Rectangle 32" width="510.000000" height="25.000000" x="21.000000" y="49.000000" rx="4.000000" fill="rgb(30,30,30)" />
			<path id="{Theme Name}" d="M35.7632 59.6362Q35.707 59.1333 35.2969 58.855Q34.8867 58.5767 34.2617 58.5767Q33.8149 58.5767 33.4878 58.7158Q33.1606 58.855 32.98 59.0991Q32.8018 59.3433 32.8018 59.6533Q32.7993 59.9121 32.9214 60.1001Q33.0459 60.2881 33.2461 60.415Q33.4463 60.5396 33.6758 60.6226Q33.9077 60.7056 34.1226 60.7593L34.833 60.9424Q35.1797 61.0278 35.5459 61.1768Q35.9121 61.3232 36.2222 61.5601Q36.5347 61.7969 36.7275 62.1484Q36.9229 62.5 36.9229 62.9907Q36.9229 63.606 36.6055 64.0869Q36.2881 64.5679 35.6851 64.8438Q35.0845 65.1196 34.23 65.1196Q33.4146 65.1196 32.8164 64.8633Q32.2207 64.6045 31.8838 64.126Q31.5469 63.6475 31.5103 62.9883L32.6138 62.9883Q32.6455 63.3838 32.8701 63.645Q33.0947 63.9038 33.4487 64.0332Q33.8027 64.1602 34.2251 64.1602Q34.6914 64.1602 35.0552 64.0137Q35.4189 63.8647 35.6265 63.6011Q35.8364 63.335 35.8389 62.981Q35.8364 62.6562 35.6533 62.4512Q35.4727 62.2437 35.1602 62.1094Q34.8477 61.9751 34.4595 61.8726L33.6001 61.6357Q32.7236 61.3989 32.2134 60.9375Q31.7056 60.4736 31.708 59.7168Q31.7056 59.0894 32.0449 58.6206Q32.3867 58.1494 32.9702 57.8882Q33.5537 57.627 34.2837 57.627Q35.0234 57.627 35.5874 57.8882Q36.1538 58.147 36.481 58.6011Q36.8081 59.0527 36.8228 59.6362L35.7632 59.6362ZM40.6964 59.5459L40.6964 60.3979L37.7154 60.3979L37.7154 59.5459L40.6964 59.5459ZM38.5138 58.2397L39.5758 58.2397L39.5758 63.3984Q39.5758 63.7061 39.6661 63.8623Q39.7589 64.0186 39.9078 64.0723Q40.0567 64.126 40.2301 64.126Q40.3595 64.126 40.4522 64.1089Q40.5475 64.0918 40.6012 64.082L40.7965 64.9585Q40.7013 64.9927 40.5304 65.0293Q40.3595 65.0684 40.1056 65.0732Q39.6856 65.0806 39.3219 64.9243Q38.9605 64.7656 38.7359 64.4409Q38.5138 64.1138 38.5138 63.6182L38.5138 58.2397ZM44.1623 65.1099Q43.3566 65.1099 42.7731 64.7632Q42.1921 64.4165 41.8771 63.7866Q41.5646 63.1567 41.5646 62.3096Q41.5646 61.4697 41.8771 60.8325Q42.1921 60.1929 42.7585 59.834Q43.3249 59.4751 44.0842 59.4751Q44.548 59.4751 44.9802 59.6265Q45.4147 59.7778 45.7565 60.105Q46.1008 60.4321 46.301 60.9546Q46.5012 61.4746 46.5012 62.2168L46.5012 62.5903L42.1652 62.5903L42.1652 61.7944L45.4587 61.7944Q45.4587 61.3794 45.2878 61.0547Q45.1193 60.7275 44.8117 60.5396Q44.5065 60.3516 44.0939 60.3516Q43.6447 60.3516 43.3127 60.5713Q42.9831 60.7886 42.8024 61.1401Q42.6218 61.4893 42.6218 61.897L42.6218 62.5171Q42.6218 63.064 42.8146 63.4473Q43.0099 63.8306 43.3566 64.0332Q43.7057 64.2334 44.1696 64.2334Q44.4748 64.2334 44.7214 64.1479Q44.9704 64.0601 45.1511 63.8867Q45.3317 63.7134 45.4294 63.4546L46.4328 63.6353Q46.3132 64.0796 46.0031 64.4116Q45.6931 64.7437 45.2243 64.9268Q44.7556 65.1099 44.1623 65.1099ZM49.2717 65.1196Q48.7517 65.1196 48.3342 64.9268Q47.9167 64.7339 47.6701 64.3652Q47.426 63.9941 47.426 63.4595Q47.426 62.9956 47.6042 62.6978Q47.7824 62.3999 48.0852 62.2266Q48.3879 62.0508 48.759 61.9629Q49.1325 61.875 49.5207 61.8286Q50.009 61.7725 50.3142 61.7358Q50.6194 61.6968 50.7585 61.6138Q50.8977 61.5283 50.8977 61.3354L50.8977 61.3086Q50.8977 60.8472 50.6365 60.5908Q50.3752 60.3345 49.8625 60.3345Q49.3254 60.3345 49.0178 60.5713Q48.7102 60.8057 48.5906 61.0938L47.5945 60.8667Q47.7727 60.3687 48.1145 60.0635Q48.4563 59.7559 48.9031 59.6167Q49.3523 59.4751 49.8454 59.4751Q50.1726 59.4751 50.5388 59.5532Q50.9074 59.6289 51.2297 59.8315Q51.552 60.0317 51.7571 60.4077Q51.9621 60.7812 51.9621 61.377L51.9621 65L50.9245 65L50.9245 64.2554L50.8806 64.2554Q50.7805 64.458 50.5754 64.6582Q50.3703 64.8584 50.0456 64.9902Q49.7234 65.1196 49.2717 65.1196ZM49.5012 64.27Q49.9431 64.27 50.2556 64.0967Q50.5705 63.9209 50.7341 63.6401Q50.9001 63.3569 50.9001 63.0347L50.9001 62.3291Q50.844 62.3877 50.6828 62.4341Q50.5217 62.4805 50.3142 62.5171Q50.1091 62.5513 49.9138 62.5781Q49.7185 62.6025 49.5866 62.6196Q49.279 62.6611 49.0227 62.7515Q48.7688 62.8418 48.6174 63.0151Q48.466 63.1885 48.466 63.4717Q48.466 63.8672 48.7566 64.0698Q49.0495 64.27 49.5012 64.27ZM53.3748 65L53.3748 59.5459L54.3953 59.5459L54.3953 60.4346L54.4637 60.4346Q54.6346 59.9829 55.0203 59.729Q55.4061 59.4751 55.9456 59.4751Q56.4925 59.4751 56.8636 59.7314Q57.2347 59.9854 57.4154 60.4346L57.4715 60.4346Q57.6668 59.9976 58.0916 59.7363Q58.5189 59.4751 59.1072 59.4751Q59.8494 59.4751 60.3182 59.9414Q60.7894 60.4053 60.7894 61.3428L60.7894 65L59.7274 65L59.7274 61.4429Q59.7274 60.8887 59.4271 60.6421Q59.1268 60.3931 58.7069 60.3931Q58.1868 60.3931 57.8988 60.7104Q57.6107 61.0278 57.6107 61.5234L57.6107 65L56.5535 65L56.5535 61.3745Q56.5535 60.9302 56.2752 60.6616Q55.9993 60.3931 55.5574 60.3931Q55.2547 60.3931 54.9984 60.5518Q54.7445 60.708 54.5906 60.9888Q54.4368 61.2671 54.4368 61.6357L54.4368 65L53.3748 65ZM61.4821 58.6694L61.4821 57.7271L67.112 57.7271L67.112 58.6694L64.8439 58.6694L64.8439 65L63.7501 65L63.7501 58.6694L61.4821 58.6694ZM69.3268 61.7603L69.3268 65L68.2647 65L68.2647 57.7271L69.3121 57.7271L69.3121 60.4346L69.3805 60.4346Q69.5709 59.9927 69.964 59.7339Q70.3595 59.4751 70.9942 59.4751Q71.5558 59.4751 71.9757 59.7046Q72.398 59.9341 72.63 60.3931Q72.8643 60.8496 72.8643 61.5308L72.8643 65L71.8023 65L71.8023 61.6602Q71.8023 61.0571 71.4923 60.7275Q71.1847 60.3955 70.6353 60.3955Q70.2569 60.3955 69.9615 60.5566Q69.6661 60.7153 69.4977 61.0205Q69.3292 61.3257 69.3268 61.7603ZM76.6374 65.1099Q75.8318 65.1099 75.2483 64.7632Q74.6672 64.4165 74.3523 63.7866Q74.0398 63.1567 74.0398 62.3096Q74.0398 61.4697 74.3523 60.8325Q74.6672 60.1929 75.2336 59.834Q75.8 59.4751 76.5593 59.4751Q77.0232 59.4751 77.4553 59.6265Q77.8899 59.7778 78.2317 60.105Q78.5759 60.4321 78.7761 60.9546Q78.9763 61.4746 78.9763 62.2168L78.9763 62.5903L74.6404 62.5903L74.6404 61.7944L77.9338 61.7944Q77.9338 61.3794 77.7629 61.0547Q77.5945 60.7275 77.2868 60.5396Q76.9817 60.3516 76.5691 60.3516Q76.1199 60.3516 75.7878 60.5713Q75.4582 60.7886 75.2776 61.1401Q75.0969 61.4893 75.0969 61.897L75.0969 62.5171Q75.0969 63.064 75.2898 63.4473Q75.4851 63.8306 75.8318 64.0332Q76.1809 64.2334 76.6448 64.2334Q76.9499 64.2334 77.1965 64.1479Q77.4455 64.0601 77.6262 63.8867Q77.8069 63.7134 77.9045 63.4546L78.9079 63.6353Q78.7883 64.0796 78.4783 64.4116Q78.1682 64.7437 77.6994 64.9268Q77.2307 65.1099 76.6374 65.1099ZM80.1575 65L80.1575 59.5459L81.178 59.5459L81.178 60.4346L81.2464 60.4346Q81.4173 59.9829 81.803 59.729Q82.1888 59.4751 82.7283 59.4751Q83.2752 59.4751 83.6463 59.7314Q84.0174 59.9854 84.198 60.4346L84.2542 60.4346Q84.4495 59.9976 84.8743 59.7363Q85.3015 59.4751 85.8899 59.4751Q86.6321 59.4751 87.1009 59.9414Q87.5721 60.4053 87.5721 61.3428L87.5721 65L86.51 65L86.51 61.4429Q86.51 60.8887 86.2097 60.6421Q85.9095 60.3931 85.4895 60.3931Q84.9695 60.3931 84.6814 60.7104Q84.3933 61.0278 84.3933 61.5234L84.3933 65L83.3362 65L83.3362 61.3745Q83.3362 60.9302 83.0579 60.6616Q82.782 60.3931 82.3401 60.3931Q82.0374 60.3931 81.781 60.5518Q81.5271 60.708 81.3733 60.9888Q81.2195 61.2671 81.2195 61.6357L81.2195 65L80.1575 65ZM91.3462 65.1099Q90.5406 65.1099 89.9571 64.7632Q89.376 64.4165 89.0611 63.7866Q88.7486 63.1567 88.7486 62.3096Q88.7486 61.4697 89.0611 60.8325Q89.376 60.1929 89.9424 59.834Q90.5088 59.4751 91.2681 59.4751Q91.732 59.4751 92.1641 59.6265Q92.5987 59.7778 92.9405 60.105Q93.2847 60.4321 93.4849 60.9546Q93.6851 61.4746 93.6851 62.2168L93.6851 62.5903L89.3492 62.5903L89.3492 61.7944L92.6426 61.7944Q92.6426 61.3794 92.4717 61.0547Q92.3033 60.7275 91.9957 60.5396Q91.6905 60.3516 91.2779 60.3516Q90.8287 60.3516 90.4966 60.5713Q90.167 60.7886 89.9864 61.1401Q89.8057 61.4893 89.8057 61.897L89.8057 62.5171Q89.8057 63.064 89.9986 63.4473Q90.1939 63.8306 90.5406 64.0332Q90.8897 64.2334 91.3536 64.2334Q91.6587 64.2334 91.9053 64.1479Q92.1543 64.0601 92.335 63.8867Q92.5157 63.7134 92.6133 63.4546L93.6167 63.6353Q93.4971 64.0796 93.1871 64.4116Q92.877 64.7437 92.4082 64.9268Q91.9395 65.1099 91.3462 65.1099Z" fill="rgb(131,131,131)" fill-rule="nonzero" />
			<path id="Install {Theme Name}" d="M229.751 107.727L229.751 115L228.433 115L228.433 107.727L229.751 107.727ZM232.412 111.804L232.412 115L231.125 115L231.125 109.546L232.356 109.546L232.356 110.471L232.422 110.471Q232.607 110.015 233.02 109.746Q233.435 109.475 234.045 109.475Q234.609 109.475 235.029 109.717Q235.452 109.956 235.684 110.415Q235.915 110.874 235.915 111.528L235.915 115L234.629 115L234.629 111.726Q234.629 111.179 234.346 110.872Q234.062 110.562 233.567 110.562Q233.227 110.562 232.966 110.708Q232.707 110.854 232.561 111.133Q232.415 111.411 232.412 111.804ZM241.534 110.989L240.362 111.116Q240.314 110.938 240.189 110.781Q240.067 110.625 239.862 110.53Q239.657 110.432 239.359 110.432Q238.959 110.432 238.685 110.608Q238.414 110.781 238.417 111.06Q238.414 111.296 238.592 111.445Q238.773 111.594 239.188 111.689L240.118 111.89Q240.892 112.056 241.271 112.419Q241.651 112.781 241.651 113.367Q241.651 113.882 241.351 114.275Q241.053 114.666 240.528 114.888Q240.006 115.107 239.322 115.107Q238.321 115.107 237.711 114.688Q237.101 114.265 236.981 113.511L238.236 113.391Q238.321 113.76 238.6 113.948Q238.878 114.136 239.32 114.136Q239.779 114.136 240.057 113.95Q240.336 113.762 240.336 113.484Q240.336 113.25 240.155 113.098Q239.977 112.944 239.601 112.864L238.668 112.668Q237.884 112.502 237.508 112.114Q237.132 111.726 237.135 111.13Q237.132 110.627 237.411 110.256Q237.689 109.883 238.187 109.68Q238.685 109.475 239.342 109.475Q240.301 109.475 240.853 109.885Q241.405 110.293 241.534 110.989ZM245.437 109.546L245.437 110.54L242.303 110.54L242.303 109.546L245.437 109.546ZM243.077 108.24L244.363 108.24L244.363 113.362Q244.363 113.618 244.441 113.755Q244.519 113.892 244.651 113.943Q244.783 113.992 244.947 113.992Q245.064 113.992 245.164 113.975Q245.267 113.955 245.32 113.943L245.538 114.946Q245.433 114.98 245.242 115.022Q245.054 115.066 244.781 115.073Q244.297 115.088 243.909 114.927Q243.523 114.763 243.299 114.424Q243.074 114.084 243.077 113.572L243.077 108.24ZM248.082 115.11Q247.565 115.11 247.15 114.924Q246.737 114.736 246.495 114.373Q246.256 114.006 246.256 113.469Q246.256 113.008 246.427 112.705Q246.6 112.402 246.896 112.222Q247.191 112.041 247.56 111.948Q247.931 111.855 248.329 111.812Q248.81 111.76 249.108 111.719Q249.406 111.677 249.54 111.592Q249.677 111.504 249.677 111.321L249.677 111.299Q249.677 110.898 249.44 110.679Q249.203 110.457 248.754 110.457Q248.283 110.457 248.007 110.664Q247.731 110.872 247.636 111.15L246.437 110.979Q246.578 110.483 246.906 110.149Q247.233 109.812 247.704 109.644Q248.175 109.475 248.749 109.475Q249.139 109.475 249.53 109.568Q249.923 109.658 250.245 109.871Q250.57 110.083 250.765 110.447Q250.963 110.808 250.963 111.35L250.963 115L249.728 115L249.728 114.25L249.686 114.25Q249.569 114.478 249.357 114.675Q249.144 114.873 248.827 114.993Q248.512 115.11 248.082 115.11ZM248.417 114.165Q248.803 114.165 249.086 114.011Q249.371 113.857 249.528 113.604Q249.684 113.347 249.684 113.042L249.684 112.4Q249.62 112.451 249.476 112.495Q249.335 112.537 249.157 112.568Q248.978 112.6 248.803 112.625Q248.629 112.649 248.502 112.668Q248.214 112.708 247.987 112.795Q247.76 112.883 247.628 113.042Q247.499 113.201 247.499 113.45Q247.499 113.801 247.758 113.984Q248.016 114.165 248.417 114.165ZM253.545 107.727L253.545 115L252.258 115L252.258 107.727L253.545 107.727ZM256.151 107.727L256.151 115L254.865 115L254.865 107.727L256.151 107.727ZM263.965 109.727Q263.916 109.26 263.547 109.004Q263.181 108.745 262.593 108.745Q262.18 108.745 261.887 108.867Q261.594 108.989 261.435 109.204Q261.279 109.417 261.277 109.69Q261.274 109.917 261.379 110.085Q261.487 110.251 261.667 110.366Q261.848 110.481 262.068 110.562Q262.288 110.64 262.512 110.693L263.196 110.864Q263.606 110.959 263.987 111.123Q264.37 111.284 264.673 111.533Q264.976 111.782 265.151 112.134Q265.33 112.485 265.332 112.957Q265.33 113.599 265.002 114.084Q264.678 114.568 264.06 114.839Q263.445 115.11 262.573 115.11Q261.726 115.11 261.101 114.849Q260.476 114.585 260.124 114.08Q259.775 113.574 259.748 112.852L261.045 112.852Q261.072 113.232 261.277 113.484Q261.484 113.735 261.816 113.862Q262.151 113.987 262.561 113.987Q262.991 113.987 263.315 113.857Q263.643 113.726 263.826 113.494Q264.011 113.259 264.014 112.949Q264.011 112.664 263.848 112.478Q263.684 112.29 263.391 112.166Q263.098 112.039 262.707 111.941L261.88 111.724Q260.981 111.494 260.461 111.025Q259.941 110.554 259.941 109.773Q259.941 109.128 260.29 108.647Q260.64 108.167 261.243 107.898Q261.848 107.627 262.61 107.627Q263.384 107.627 263.967 107.896Q264.553 108.164 264.885 108.638Q265.22 109.111 265.232 109.727L263.965 109.727ZM269.17 109.546L269.17 110.54L266.035 110.54L266.035 109.546L269.17 109.546ZM266.809 108.24L268.095 108.24L268.095 113.362Q268.095 113.618 268.174 113.755Q268.252 113.892 268.384 113.943Q268.515 113.992 268.679 113.992Q268.796 113.992 268.896 113.975Q268.999 113.955 269.052 113.943L269.27 114.946Q269.165 114.98 268.974 115.022Q268.786 115.066 268.513 115.073Q268.03 115.088 267.641 114.927Q267.256 114.763 267.031 114.424Q266.806 114.084 266.809 113.572L266.809 108.24ZM272.605 115.107Q271.782 115.107 271.189 114.763Q270.596 114.419 270.276 113.789Q269.956 113.159 269.956 112.305Q269.956 111.462 270.276 110.825Q270.596 110.188 271.174 109.832Q271.755 109.475 272.537 109.475Q273.039 109.475 273.489 109.636Q273.94 109.797 274.285 110.134Q274.631 110.471 274.829 110.991Q275.029 111.511 275.029 112.229L275.029 112.625L270.557 112.625L270.557 111.758L273.796 111.758Q273.794 111.387 273.638 111.099Q273.484 110.811 273.203 110.645Q272.925 110.476 272.554 110.476Q272.158 110.476 271.86 110.667Q271.562 110.854 271.396 111.162Q271.233 111.47 271.23 111.836L271.23 112.59Q271.23 113.066 271.404 113.406Q271.577 113.745 271.89 113.926Q272.202 114.104 272.622 114.104Q272.903 114.104 273.13 114.026Q273.359 113.948 273.523 113.792Q273.689 113.633 273.777 113.401L274.978 113.538Q274.863 114.011 274.543 114.365Q274.226 114.717 273.733 114.912Q273.24 115.107 272.605 115.107ZM277.685 115.11Q277.167 115.11 276.752 114.924Q276.339 114.736 276.098 114.373Q275.858 114.006 275.858 113.469Q275.858 113.008 276.029 112.705Q276.203 112.402 276.498 112.222Q276.794 112.041 277.162 111.948Q277.533 111.855 277.931 111.812Q278.412 111.76 278.71 111.719Q279.008 111.677 279.142 111.592Q279.279 111.504 279.279 111.321L279.279 111.299Q279.279 110.898 279.042 110.679Q278.805 110.457 278.356 110.457Q277.885 110.457 277.609 110.664Q277.333 110.872 277.238 111.15L276.039 110.979Q276.181 110.483 276.508 110.149Q276.835 109.812 277.306 109.644Q277.777 109.475 278.351 109.475Q278.742 109.475 279.132 109.568Q279.525 109.658 279.848 109.871Q280.172 110.083 280.368 110.447Q280.565 110.808 280.565 111.35L280.565 115L279.33 115L279.33 114.25L279.289 114.25Q279.171 114.478 278.959 114.675Q278.747 114.873 278.429 114.993Q278.114 115.11 277.685 115.11ZM278.019 114.165Q278.405 114.165 278.688 114.011Q278.974 113.857 279.13 113.604Q279.286 113.347 279.286 113.042L279.286 112.4Q279.223 112.451 279.079 112.495Q278.937 112.537 278.759 112.568Q278.581 112.6 278.405 112.625Q278.232 112.649 278.105 112.668Q277.816 112.708 277.589 112.795Q277.362 112.883 277.231 113.042Q277.101 113.201 277.101 113.45Q277.101 113.801 277.36 113.984Q277.619 114.165 278.019 114.165ZM281.861 115L281.861 109.546L283.091 109.546L283.091 110.471L283.157 110.471Q283.325 110.005 283.718 109.741Q284.112 109.475 284.658 109.475Q285.213 109.475 285.593 109.744Q285.977 110.01 286.133 110.471L286.189 110.471Q286.372 110.017 286.802 109.746Q287.234 109.475 287.83 109.475Q288.582 109.475 289.055 109.951Q289.531 110.425 289.531 111.338L289.531 115L288.245 115L288.245 111.538Q288.245 111.03 287.974 110.793Q287.703 110.557 287.312 110.557Q286.846 110.557 286.585 110.847Q286.326 111.135 286.326 111.597L286.326 115L285.066 115L285.066 111.487Q285.066 111.062 284.812 110.811Q284.558 110.557 284.151 110.557Q283.872 110.557 283.645 110.698Q283.418 110.84 283.281 111.094Q283.147 111.345 283.147 111.682L283.147 115L281.861 115ZM290.122 108.833L290.122 107.727L295.923 107.727L295.923 108.833L293.677 108.833L293.677 115L292.368 115L292.368 108.833L290.122 108.833ZM298.268 111.804L298.268 115L296.981 115L296.981 107.727L298.239 107.727L298.239 110.471L298.305 110.471Q298.495 110.01 298.898 109.744Q299.301 109.475 299.928 109.475Q300.494 109.475 300.917 109.714Q301.339 109.951 301.571 110.41Q301.805 110.867 301.805 111.528L301.805 115L300.519 115L300.519 111.726Q300.519 111.174 300.236 110.869Q299.952 110.562 299.447 110.562Q299.105 110.562 298.837 110.708Q298.571 110.854 298.419 111.133Q298.27 111.411 298.268 111.804ZM305.528 115.107Q304.705 115.107 304.112 114.763Q303.518 114.419 303.198 113.789Q302.879 113.159 302.879 112.305Q302.879 111.462 303.198 110.825Q303.518 110.188 304.097 109.832Q304.678 109.475 305.459 109.475Q305.962 109.475 306.411 109.636Q306.863 109.797 307.207 110.134Q307.554 110.471 307.752 110.991Q307.952 111.511 307.952 112.229L307.952 112.625L303.479 112.625L303.479 111.758L306.719 111.758Q306.716 111.387 306.56 111.099Q306.406 110.811 306.126 110.645Q305.847 110.476 305.476 110.476Q305.081 110.476 304.783 110.667Q304.485 110.854 304.319 111.162Q304.155 111.47 304.153 111.836L304.153 112.59Q304.153 113.066 304.326 113.406Q304.5 113.745 304.812 113.926Q305.125 114.104 305.545 114.104Q305.825 114.104 306.052 114.026Q306.282 113.948 306.445 113.792Q306.612 113.633 306.699 113.401L307.901 113.538Q307.786 114.011 307.466 114.365Q307.149 114.717 306.655 114.912Q306.162 115.107 305.528 115.107ZM309.037 115L309.037 109.546L310.268 109.546L310.268 110.471L310.334 110.471Q310.502 110.005 310.895 109.741Q311.288 109.475 311.835 109.475Q312.389 109.475 312.77 109.744Q313.154 110.01 313.31 110.471L313.366 110.471Q313.549 110.017 313.979 109.746Q314.411 109.475 315.007 109.475Q315.759 109.475 316.232 109.951Q316.708 110.425 316.708 111.338L316.708 115L315.422 115L315.422 111.538Q315.422 111.03 315.151 110.793Q314.88 110.557 314.489 110.557Q314.023 110.557 313.762 110.847Q313.503 111.135 313.503 111.597L313.503 115L312.243 115L312.243 111.487Q312.243 111.062 311.989 110.811Q311.735 110.557 311.327 110.557Q311.049 110.557 310.822 110.698Q310.595 110.84 310.458 111.094Q310.324 111.345 310.324 111.682L310.324 115L309.037 115ZM320.432 115.107Q319.609 115.107 319.016 114.763Q318.422 114.419 318.103 113.789Q317.783 113.159 317.783 112.305Q317.783 111.462 318.103 110.825Q318.422 110.188 319.001 109.832Q319.582 109.475 320.363 109.475Q320.866 109.475 321.315 109.636Q321.767 109.797 322.111 110.134Q322.458 110.471 322.656 110.991Q322.856 111.511 322.856 112.229L322.856 112.625L318.383 112.625L318.383 111.758L321.623 111.758Q321.621 111.387 321.464 111.099Q321.311 110.811 321.03 110.645Q320.751 110.476 320.38 110.476Q319.985 110.476 319.687 110.667Q319.389 110.854 319.223 111.162Q319.06 111.47 319.057 111.836L319.057 112.59Q319.057 113.066 319.23 113.406Q319.404 113.745 319.716 113.926Q320.029 114.104 320.449 114.104Q320.729 114.104 320.957 114.026Q321.186 113.948 321.35 113.792Q321.516 113.633 321.604 113.401L322.805 113.538Q322.69 114.011 322.37 114.365Q322.053 114.717 321.56 114.912Q321.066 115.107 320.432 115.107Z" fill="rgb(255,255,255)" fill-rule="nonzero" />
			<path id="Reset {Theme Name}" d="M229.195 175L229.195 167.727L231.927 167.727Q232.762 167.727 233.33 168.02Q233.902 168.311 234.195 168.835Q234.488 169.358 234.488 170.054Q234.488 170.752 234.19 171.265Q233.894 171.777 233.318 172.056Q232.745 172.334 231.905 172.334L229.961 172.334L229.961 171.245L231.729 171.245Q232.217 171.245 232.53 171.108Q232.845 170.969 232.994 170.706Q233.145 170.439 233.145 170.054Q233.145 169.668 232.994 169.392Q232.842 169.116 232.527 168.972Q232.215 168.826 231.722 168.826L230.513 168.826L230.513 175L229.195 175ZM232.954 171.704L234.754 175L233.284 175L231.517 171.704L232.954 171.704ZM237.983 175.107Q237.16 175.107 236.567 174.763Q235.974 174.419 235.654 173.789Q235.334 173.159 235.334 172.305Q235.334 171.462 235.654 170.825Q235.974 170.188 236.552 169.832Q237.134 169.475 237.915 169.475Q238.418 169.475 238.867 169.636Q239.319 169.797 239.663 170.134Q240.009 170.471 240.207 170.991Q240.407 171.511 240.407 172.229L240.407 172.625L235.935 172.625L235.935 171.758L239.175 171.758Q239.172 171.387 239.016 171.099Q238.862 170.811 238.581 170.645Q238.303 170.476 237.932 170.476Q237.536 170.476 237.238 170.667Q236.941 170.854 236.775 171.162Q236.611 171.47 236.609 171.836L236.609 172.59Q236.609 173.066 236.782 173.406Q236.955 173.745 237.268 173.926Q237.58 174.104 238 174.104Q238.281 174.104 238.508 174.026Q238.738 173.948 238.901 173.792Q239.067 173.633 239.155 173.401L240.356 173.538Q240.241 174.011 239.922 174.365Q239.604 174.717 239.111 174.912Q238.618 175.107 237.983 175.107ZM245.805 170.989L244.633 171.116Q244.584 170.938 244.459 170.781Q244.337 170.625 244.132 170.53Q243.927 170.432 243.629 170.432Q243.229 170.432 242.955 170.608Q242.684 170.781 242.687 171.06Q242.684 171.296 242.863 171.445Q243.043 171.594 243.458 171.689L244.388 171.89Q245.162 172.056 245.541 172.419Q245.922 172.781 245.922 173.367Q245.922 173.882 245.621 174.275Q245.324 174.666 244.799 174.888Q244.276 175.107 243.593 175.107Q242.592 175.107 241.981 174.688Q241.371 174.265 241.251 173.511L242.506 173.391Q242.592 173.76 242.87 173.948Q243.148 174.136 243.59 174.136Q244.049 174.136 244.327 173.95Q244.606 173.762 244.606 173.484Q244.606 173.25 244.425 173.098Q244.247 172.944 243.871 172.864L242.938 172.668Q242.155 172.502 241.779 172.114Q241.403 171.726 241.405 171.13Q241.403 170.627 241.681 170.256Q241.959 169.883 242.457 169.68Q242.955 169.475 243.612 169.475Q244.572 169.475 245.123 169.885Q245.675 170.293 245.805 170.989ZM249.4 175.107Q248.577 175.107 247.984 174.763Q247.391 174.419 247.071 173.789Q246.751 173.159 246.751 172.305Q246.751 171.462 247.071 170.825Q247.391 170.188 247.969 169.832Q248.55 169.475 249.332 169.475Q249.835 169.475 250.284 169.636Q250.735 169.797 251.08 170.134Q251.426 170.471 251.624 170.991Q251.824 171.511 251.824 172.229L251.824 172.625L247.352 172.625L247.352 171.758L250.591 171.758Q250.589 171.387 250.433 171.099Q250.279 170.811 249.998 170.645Q249.72 170.476 249.349 170.476Q248.953 170.476 248.655 170.667Q248.358 170.854 248.192 171.162Q248.028 171.47 248.026 171.836L248.026 172.59Q248.026 173.066 248.199 173.406Q248.372 173.745 248.685 173.926Q248.997 174.104 249.417 174.104Q249.698 174.104 249.925 174.026Q250.154 173.948 250.318 173.792Q250.484 173.633 250.572 173.401L251.773 173.538Q251.658 174.011 251.339 174.365Q251.021 174.717 250.528 174.912Q250.035 175.107 249.4 175.107ZM255.634 169.546L255.634 170.54L252.5 170.54L252.5 169.546L255.634 169.546ZM253.274 168.24L254.56 168.24L254.56 173.362Q254.56 173.618 254.638 173.755Q254.717 173.892 254.848 173.943Q254.98 173.992 255.144 173.992Q255.261 173.992 255.361 173.975Q255.464 173.955 255.517 173.943L255.735 174.946Q255.63 174.98 255.439 175.022Q255.251 175.066 254.978 175.073Q254.494 175.088 254.106 174.927Q253.72 174.763 253.496 174.424Q253.271 174.084 253.274 173.572L253.274 168.24ZM263.203 169.727Q263.154 169.26 262.786 169.004Q262.419 168.745 261.831 168.745Q261.418 168.745 261.125 168.867Q260.832 168.989 260.674 169.204Q260.518 169.417 260.515 169.69Q260.513 169.917 260.618 170.085Q260.725 170.251 260.906 170.366Q261.086 170.481 261.306 170.562Q261.526 170.64 261.75 170.693L262.434 170.864Q262.844 170.959 263.225 171.123Q263.608 171.284 263.911 171.533Q264.214 171.782 264.39 172.134Q264.568 172.485 264.57 172.957Q264.568 173.599 264.241 174.084Q263.916 174.568 263.298 174.839Q262.683 175.11 261.811 175.11Q260.964 175.11 260.339 174.849Q259.714 174.585 259.363 174.08Q259.014 173.574 258.987 172.852L260.283 172.852Q260.31 173.232 260.515 173.484Q260.723 173.735 261.055 173.862Q261.389 173.987 261.799 173.987Q262.229 173.987 262.554 173.857Q262.881 173.726 263.064 173.494Q263.249 173.259 263.252 172.949Q263.249 172.664 263.086 172.478Q262.922 172.29 262.629 172.166Q262.336 172.039 261.946 171.941L261.118 171.724Q260.22 171.494 259.7 171.025Q259.18 170.554 259.18 169.773Q259.18 169.128 259.529 168.647Q259.878 168.167 260.481 167.898Q261.086 167.627 261.848 167.627Q262.622 167.627 263.206 167.896Q263.791 168.164 264.123 168.638Q264.458 169.111 264.47 169.727L263.203 169.727ZM268.408 169.546L268.408 170.54L265.273 170.54L265.273 169.546L268.408 169.546ZM266.047 168.24L267.334 168.24L267.334 173.362Q267.334 173.618 267.412 173.755Q267.49 173.892 267.622 173.943Q267.754 173.992 267.917 173.992Q268.034 173.992 268.134 173.975Q268.237 173.955 268.291 173.943L268.508 174.946Q268.403 174.98 268.213 175.022Q268.025 175.066 267.751 175.073Q267.268 175.088 266.88 174.927Q266.494 174.763 266.269 174.424Q266.045 174.084 266.047 173.572L266.047 168.24ZM271.843 175.107Q271.02 175.107 270.427 174.763Q269.834 174.419 269.514 173.789Q269.194 173.159 269.194 172.305Q269.194 171.462 269.514 170.825Q269.834 170.188 270.413 169.832Q270.994 169.475 271.775 169.475Q272.278 169.475 272.727 169.636Q273.179 169.797 273.523 170.134Q273.87 170.471 274.067 170.991Q274.268 171.511 274.268 172.229L274.268 172.625L269.795 172.625L269.795 171.758L273.035 171.758Q273.032 171.387 272.876 171.099Q272.722 170.811 272.441 170.645Q272.163 170.476 271.792 170.476Q271.396 170.476 271.099 170.667Q270.801 170.854 270.635 171.162Q270.471 171.47 270.469 171.836L270.469 172.59Q270.469 173.066 270.642 173.406Q270.815 173.745 271.128 173.926Q271.44 174.104 271.86 174.104Q272.141 174.104 272.368 174.026Q272.598 173.948 272.761 173.792Q272.927 173.633 273.015 173.401L274.216 173.538Q274.102 174.011 273.782 174.365Q273.464 174.717 272.971 174.912Q272.478 175.107 271.843 175.107ZM276.923 175.11Q276.405 175.11 275.99 174.924Q275.578 174.736 275.336 174.373Q275.097 174.006 275.097 173.469Q275.097 173.008 275.268 172.705Q275.441 172.402 275.736 172.222Q276.032 172.041 276.4 171.948Q276.772 171.855 277.169 171.812Q277.65 171.76 277.948 171.719Q278.246 171.677 278.38 171.592Q278.517 171.504 278.517 171.321L278.517 171.299Q278.517 170.898 278.28 170.679Q278.044 170.457 277.594 170.457Q277.123 170.457 276.847 170.664Q276.571 170.872 276.476 171.15L275.277 170.979Q275.419 170.483 275.746 170.149Q276.073 169.812 276.544 169.644Q277.016 169.475 277.589 169.475Q277.98 169.475 278.371 169.568Q278.764 169.658 279.086 169.871Q279.411 170.083 279.606 170.447Q279.804 170.808 279.804 171.35L279.804 175L278.568 175L278.568 174.25L278.527 174.25Q278.41 174.478 278.197 174.675Q277.985 174.873 277.668 174.993Q277.353 175.11 276.923 175.11ZM277.257 174.165Q277.643 174.165 277.926 174.011Q278.212 173.857 278.368 173.604Q278.524 173.347 278.524 173.042L278.524 172.4Q278.461 172.451 278.317 172.495Q278.175 172.537 277.997 172.568Q277.819 172.6 277.643 172.625Q277.47 172.649 277.343 172.668Q277.055 172.708 276.828 172.795Q276.601 172.883 276.469 173.042Q276.339 173.201 276.339 173.45Q276.339 173.801 276.598 173.984Q276.857 174.165 277.257 174.165ZM281.099 175L281.099 169.546L282.329 169.546L282.329 170.471L282.395 170.471Q282.564 170.005 282.957 169.741Q283.35 169.475 283.897 169.475Q284.451 169.475 284.832 169.744Q285.215 170.01 285.371 170.471L285.427 170.471Q285.611 170.017 286.04 169.746Q286.472 169.475 287.068 169.475Q287.82 169.475 288.294 169.951Q288.77 170.425 288.77 171.338L288.77 175L287.483 175L287.483 171.538Q287.483 171.03 287.212 170.793Q286.941 170.557 286.55 170.557Q286.084 170.557 285.823 170.847Q285.564 171.135 285.564 171.597L285.564 175L284.304 175L284.304 171.487Q284.304 171.062 284.05 170.811Q283.797 170.557 283.389 170.557Q283.111 170.557 282.883 170.698Q282.656 170.84 282.52 171.094Q282.385 171.345 282.385 171.682L282.385 175L281.099 175ZM289.36 168.833L289.36 167.727L295.161 167.727L295.161 168.833L292.915 168.833L292.915 175L291.606 175L291.606 168.833L289.36 168.833ZM297.506 171.804L297.506 175L296.22 175L296.22 167.727L297.477 167.727L297.477 170.471L297.543 170.471Q297.733 170.01 298.136 169.744Q298.539 169.475 299.166 169.475Q299.733 169.475 300.155 169.714Q300.577 169.951 300.809 170.41Q301.044 170.867 301.044 171.528L301.044 175L299.757 175L299.757 171.726Q299.757 171.174 299.474 170.869Q299.191 170.562 298.685 170.562Q298.344 170.562 298.075 170.708Q297.809 170.854 297.658 171.133Q297.509 171.411 297.506 171.804ZM304.766 175.107Q303.943 175.107 303.35 174.763Q302.757 174.419 302.437 173.789Q302.117 173.159 302.117 172.305Q302.117 171.462 302.437 170.825Q302.757 170.188 303.335 169.832Q303.916 169.475 304.697 169.475Q305.2 169.475 305.65 169.636Q306.101 169.797 306.445 170.134Q306.792 170.471 306.99 170.991Q307.19 171.511 307.19 172.229L307.19 172.625L302.717 172.625L302.717 171.758L305.957 171.758Q305.955 171.387 305.799 171.099Q305.645 170.811 305.364 170.645Q305.086 170.476 304.715 170.476Q304.319 170.476 304.021 170.667Q303.723 170.854 303.557 171.162Q303.394 171.47 303.391 171.836L303.391 172.59Q303.391 173.066 303.565 173.406Q303.738 173.745 304.05 173.926Q304.363 174.104 304.783 174.104Q305.064 174.104 305.291 174.026Q305.52 173.948 305.684 173.792Q305.85 173.633 305.938 173.401L307.139 173.538Q307.024 174.011 306.704 174.365Q306.387 174.717 305.894 174.912Q305.401 175.107 304.766 175.107ZM308.276 175L308.276 169.546L309.506 169.546L309.506 170.471L309.572 170.471Q309.741 170.005 310.134 169.741Q310.527 169.475 311.074 169.475Q311.628 169.475 312.009 169.744Q312.392 170.01 312.548 170.471L312.604 170.471Q312.787 170.017 313.217 169.746Q313.649 169.475 314.245 169.475Q314.997 169.475 315.47 169.951Q315.947 170.425 315.947 171.338L315.947 175L314.66 175L314.66 171.538Q314.66 171.03 314.389 170.793Q314.118 170.557 313.727 170.557Q313.261 170.557 313 170.847Q312.741 171.135 312.741 171.597L312.741 175L311.481 175L311.481 171.487Q311.481 171.062 311.227 170.811Q310.973 170.557 310.566 170.557Q310.287 170.557 310.06 170.698Q309.833 170.84 309.697 171.094Q309.562 171.345 309.562 171.682L309.562 175L308.276 175ZM319.67 175.107Q318.847 175.107 318.254 174.763Q317.661 174.419 317.341 173.789Q317.021 173.159 317.021 172.305Q317.021 171.462 317.341 170.825Q317.661 170.188 318.239 169.832Q318.82 169.475 319.602 169.475Q320.104 169.475 320.554 169.636Q321.005 169.797 321.35 170.134Q321.696 170.471 321.894 170.991Q322.094 171.511 322.094 172.229L322.094 172.625L317.622 172.625L317.622 171.758L320.861 171.758Q320.859 171.387 320.703 171.099Q320.549 170.811 320.268 170.645Q319.99 170.476 319.619 170.476Q319.223 170.476 318.925 170.667Q318.627 170.854 318.461 171.162Q318.298 171.47 318.295 171.836L318.295 172.59Q318.295 173.066 318.469 173.406Q318.642 173.745 318.955 173.926Q319.267 174.104 319.687 174.104Q319.968 174.104 320.195 174.026Q320.424 173.948 320.588 173.792Q320.754 173.633 320.842 173.401L322.043 173.538Q321.928 174.011 321.608 174.365Q321.291 174.717 320.798 174.912Q320.305 175.107 319.67 175.107Z" fill="rgb(131,131,131)" fill-rule="nonzero" />
			<path id="Uninstall {Theme Name}" d="M226.372 227.727L227.69 227.727L227.69 232.48Q227.69 233.259 227.322 233.853Q226.956 234.446 226.291 234.778Q225.627 235.11 224.739 235.11Q223.85 235.11 223.186 234.778Q222.522 234.446 222.153 233.853Q221.787 233.259 221.787 232.48L221.787 227.727L223.105 227.727L223.105 232.368Q223.105 232.825 223.306 233.179Q223.506 233.533 223.872 233.735Q224.241 233.936 224.739 233.936Q225.239 233.936 225.605 233.735Q225.974 233.533 226.172 233.179Q226.372 232.825 226.372 232.368L226.372 227.727ZM230.354 231.804L230.354 235L229.068 235L229.068 229.546L230.298 229.546L230.298 230.471L230.364 230.471Q230.549 230.015 230.962 229.746Q231.377 229.475 231.987 229.475Q232.551 229.475 232.971 229.717Q233.394 229.956 233.626 230.415Q233.858 230.874 233.858 231.528L233.858 235L232.571 235L232.571 231.726Q232.571 231.179 232.288 230.872Q232.005 230.562 231.509 230.562Q231.17 230.562 230.908 230.708Q230.65 230.854 230.503 231.133Q230.357 231.411 230.354 231.804ZM235.165 235L235.165 229.546L236.451 229.546L236.451 235L235.165 235ZM235.814 228.772Q235.507 228.772 235.287 228.567Q235.067 228.362 235.067 228.074Q235.067 227.786 235.287 227.581Q235.507 227.375 235.812 227.375Q236.119 227.375 236.337 227.581Q236.556 227.786 236.556 228.074Q236.556 228.362 236.337 228.567Q236.119 228.772 235.814 228.772ZM239.058 231.804L239.058 235L237.771 235L237.771 229.546L239.002 229.546L239.002 230.471L239.068 230.471Q239.253 230.015 239.666 229.746Q240.081 229.475 240.691 229.475Q241.255 229.475 241.675 229.717Q242.098 229.956 242.329 230.415Q242.561 230.874 242.561 231.528L242.561 235L241.275 235L241.275 231.726Q241.275 231.179 240.992 230.872Q240.708 230.562 240.213 230.562Q239.873 230.562 239.612 230.708Q239.353 230.854 239.207 231.133Q239.06 231.411 239.058 231.804ZM248.18 230.989L247.008 231.116Q246.96 230.938 246.835 230.781Q246.713 230.625 246.508 230.53Q246.303 230.432 246.005 230.432Q245.605 230.432 245.331 230.608Q245.06 230.781 245.063 231.06Q245.06 231.296 245.238 231.445Q245.419 231.594 245.834 231.689L246.764 231.89Q247.538 232.056 247.917 232.419Q248.297 232.781 248.297 233.367Q248.297 233.882 247.997 234.275Q247.699 234.666 247.174 234.888Q246.652 235.107 245.968 235.107Q244.967 235.107 244.357 234.688Q243.747 234.265 243.627 233.511L244.882 233.391Q244.967 233.76 245.246 233.948Q245.524 234.136 245.966 234.136Q246.425 234.136 246.703 233.95Q246.981 233.762 246.981 233.484Q246.981 233.25 246.801 233.098Q246.623 232.944 246.247 232.864L245.314 232.668Q244.53 232.502 244.154 232.114Q243.778 231.726 243.781 231.13Q243.778 230.627 244.057 230.256Q244.335 229.883 244.833 229.68Q245.331 229.475 245.988 229.475Q246.947 229.475 247.499 229.885Q248.051 230.293 248.18 230.989ZM252.083 229.546L252.083 230.54L248.949 230.54L248.949 229.546L252.083 229.546ZM249.723 228.24L251.009 228.24L251.009 233.362Q251.009 233.618 251.087 233.755Q251.165 233.892 251.297 233.943Q251.429 233.992 251.593 233.992Q251.71 233.992 251.81 233.975Q251.912 233.955 251.966 233.943L252.183 234.946Q252.078 234.98 251.888 235.022Q251.7 235.066 251.427 235.073Q250.943 235.088 250.555 234.927Q250.169 234.763 249.945 234.424Q249.72 234.084 249.723 233.572L249.723 228.24ZM254.728 235.11Q254.211 235.11 253.796 234.924Q253.383 234.736 253.141 234.373Q252.902 234.006 252.902 233.469Q252.902 233.008 253.073 232.705Q253.246 232.402 253.542 232.222Q253.837 232.041 254.206 231.948Q254.577 231.855 254.975 231.812Q255.456 231.76 255.754 231.719Q256.052 231.677 256.186 231.592Q256.323 231.504 256.323 231.321L256.323 231.299Q256.323 230.898 256.086 230.679Q255.849 230.457 255.4 230.457Q254.928 230.457 254.653 230.664Q254.377 230.872 254.282 231.15L253.083 230.979Q253.224 230.483 253.552 230.149Q253.879 229.812 254.35 229.644Q254.821 229.475 255.395 229.475Q255.785 229.475 256.176 229.568Q256.569 229.658 256.891 229.871Q257.216 230.083 257.411 230.447Q257.609 230.808 257.609 231.35L257.609 235L256.374 235L256.374 234.25L256.332 234.25Q256.215 234.478 256.003 234.675Q255.79 234.873 255.473 234.993Q255.158 235.11 254.728 235.11ZM255.063 234.165Q255.449 234.165 255.732 234.011Q256.017 233.857 256.174 233.604Q256.33 233.347 256.33 233.042L256.33 232.4Q256.266 232.451 256.122 232.495Q255.981 232.537 255.803 232.568Q255.624 232.6 255.449 232.625Q255.275 232.649 255.148 232.668Q254.86 232.708 254.633 232.795Q254.406 232.883 254.274 233.042Q254.145 233.201 254.145 233.45Q254.145 233.801 254.404 233.984Q254.662 234.165 255.063 234.165ZM260.191 227.727L260.191 235L258.904 235L258.904 227.727L260.191 227.727ZM262.797 227.727L262.797 235L261.511 235L261.511 227.727L262.797 227.727ZM270.611 229.727Q270.562 229.26 270.193 229.004Q269.827 228.745 269.239 228.745Q268.826 228.745 268.533 228.867Q268.24 228.989 268.081 229.204Q267.925 229.417 267.923 229.69Q267.92 229.917 268.025 230.085Q268.133 230.251 268.313 230.366Q268.494 230.481 268.714 230.562Q268.934 230.64 269.158 230.693L269.842 230.864Q270.252 230.959 270.633 231.123Q271.016 231.284 271.319 231.533Q271.621 231.782 271.797 232.134Q271.975 232.485 271.978 232.957Q271.975 233.599 271.648 234.084Q271.324 234.568 270.706 234.839Q270.091 235.11 269.219 235.11Q268.372 235.11 267.747 234.849Q267.122 234.585 266.77 234.08Q266.421 233.574 266.394 232.852L267.691 232.852Q267.718 233.232 267.923 233.484Q268.13 233.735 268.462 233.862Q268.797 233.987 269.207 233.987Q269.637 233.987 269.961 233.857Q270.288 233.726 270.472 233.494Q270.657 233.259 270.66 232.949Q270.657 232.664 270.494 232.478Q270.33 232.29 270.037 232.166Q269.744 232.039 269.353 231.941L268.526 231.724Q267.627 231.494 267.107 231.025Q266.587 230.554 266.587 229.773Q266.587 229.128 266.936 228.647Q267.286 228.167 267.889 227.898Q268.494 227.627 269.256 227.627Q270.03 227.627 270.613 227.896Q271.199 228.164 271.531 228.638Q271.866 229.111 271.878 229.727L270.611 229.727ZM275.816 229.546L275.816 230.54L272.681 230.54L272.681 229.546L275.816 229.546ZM273.455 228.24L274.741 228.24L274.741 233.362Q274.741 233.618 274.82 233.755Q274.898 233.892 275.029 233.943Q275.161 233.992 275.325 233.992Q275.442 233.992 275.542 233.975Q275.645 233.955 275.698 233.943L275.916 234.946Q275.811 234.98 275.62 235.022Q275.432 235.066 275.159 235.073Q274.675 235.088 274.287 234.927Q273.902 234.763 273.677 234.424Q273.452 234.084 273.455 233.572L273.455 228.24ZM279.251 235.107Q278.428 235.107 277.835 234.763Q277.242 234.419 276.922 233.789Q276.602 233.159 276.602 232.305Q276.602 231.462 276.922 230.825Q277.242 230.188 277.82 229.832Q278.401 229.475 279.183 229.475Q279.685 229.475 280.135 229.636Q280.586 229.797 280.931 230.134Q281.277 230.471 281.475 230.991Q281.675 231.511 281.675 232.229L281.675 232.625L277.203 232.625L277.203 231.758L280.442 231.758Q280.44 231.387 280.284 231.099Q280.13 230.811 279.849 230.645Q279.571 230.476 279.2 230.476Q278.804 230.476 278.506 230.667Q278.208 230.854 278.042 231.162Q277.879 231.47 277.876 231.836L277.876 232.59Q277.876 233.066 278.05 233.406Q278.223 233.745 278.536 233.926Q278.848 234.104 279.268 234.104Q279.549 234.104 279.776 234.026Q280.005 233.948 280.169 233.792Q280.335 233.633 280.423 233.401L281.624 233.538Q281.509 234.011 281.189 234.365Q280.872 234.717 280.379 234.912Q279.886 235.107 279.251 235.107ZM284.331 235.11Q283.813 235.11 283.398 234.924Q282.985 234.736 282.744 234.373Q282.504 234.006 282.504 233.469Q282.504 233.008 282.675 232.705Q282.849 232.402 283.144 232.222Q283.439 232.041 283.808 231.948Q284.179 231.855 284.577 231.812Q285.058 231.76 285.356 231.719Q285.654 231.677 285.788 231.592Q285.925 231.504 285.925 231.321L285.925 231.299Q285.925 230.898 285.688 230.679Q285.451 230.457 285.002 230.457Q284.531 230.457 284.255 230.664Q283.979 230.872 283.884 231.15L282.685 230.979Q282.827 230.483 283.154 230.149Q283.481 229.812 283.952 229.644Q284.423 229.475 284.997 229.475Q285.388 229.475 285.778 229.568Q286.171 229.658 286.494 229.871Q286.818 230.083 287.014 230.447Q287.211 230.808 287.211 231.35L287.211 235L285.976 235L285.976 234.25L285.935 234.25Q285.817 234.478 285.605 234.675Q285.393 234.873 285.075 234.993Q284.76 235.11 284.331 235.11ZM284.665 234.165Q285.051 234.165 285.334 234.011Q285.62 233.857 285.776 233.604Q285.932 233.347 285.932 233.042L285.932 232.4Q285.869 232.451 285.725 232.495Q285.583 232.537 285.405 232.568Q285.227 232.6 285.051 232.625Q284.877 232.649 284.75 232.668Q284.462 232.708 284.235 232.795Q284.008 232.883 283.876 233.042Q283.747 233.201 283.747 233.45Q283.747 233.801 284.006 233.984Q284.265 234.165 284.665 234.165ZM288.506 235L288.506 229.546L289.737 229.546L289.737 230.471L289.803 230.471Q289.971 230.005 290.364 229.741Q290.757 229.475 291.304 229.475Q291.859 229.475 292.239 229.744Q292.623 230.01 292.779 230.471L292.835 230.471Q293.018 230.017 293.448 229.746Q293.88 229.475 294.476 229.475Q295.228 229.475 295.701 229.951Q296.177 230.425 296.177 231.338L296.177 235L294.891 235L294.891 231.538Q294.891 231.03 294.62 230.793Q294.349 230.557 293.958 230.557Q293.492 230.557 293.231 230.847Q292.972 231.135 292.972 231.597L292.972 235L291.712 235L291.712 231.487Q291.712 231.062 291.458 230.811Q291.204 230.557 290.797 230.557Q290.518 230.557 290.291 230.698Q290.064 230.84 289.927 231.094Q289.793 231.345 289.793 231.682L289.793 235L288.506 235ZM296.768 228.833L296.768 227.727L302.569 227.727L302.569 228.833L300.323 228.833L300.323 235L299.014 235L299.014 228.833L296.768 228.833ZM304.914 231.804L304.914 235L303.627 235L303.627 227.727L304.885 227.727L304.885 230.471L304.95 230.471Q305.141 230.01 305.544 229.744Q305.947 229.475 306.574 229.475Q307.14 229.475 307.563 229.714Q307.985 229.951 308.217 230.41Q308.451 230.867 308.451 231.528L308.451 235L307.165 235L307.165 231.726Q307.165 231.174 306.882 230.869Q306.598 230.562 306.093 230.562Q305.751 230.562 305.483 230.708Q305.217 230.854 305.065 231.133Q304.916 231.411 304.914 231.804ZM312.173 235.107Q311.351 235.107 310.757 234.763Q310.164 234.419 309.844 233.789Q309.525 233.159 309.525 232.305Q309.525 231.462 309.844 230.825Q310.164 230.188 310.743 229.832Q311.324 229.475 312.105 229.475Q312.608 229.475 313.057 229.636Q313.509 229.797 313.853 230.134Q314.2 230.471 314.398 230.991Q314.598 231.511 314.598 232.229L314.598 232.625L310.125 232.625L310.125 231.758L313.365 231.758Q313.362 231.387 313.206 231.099Q313.052 230.811 312.772 230.645Q312.493 230.476 312.122 230.476Q311.727 230.476 311.429 230.667Q311.131 230.854 310.965 231.162Q310.801 231.47 310.799 231.836L310.799 232.59Q310.799 233.066 310.972 233.406Q311.146 233.745 311.458 233.926Q311.771 234.104 312.191 234.104Q312.471 234.104 312.698 234.026Q312.928 233.948 313.091 233.792Q313.257 233.633 313.345 233.401L314.547 233.538Q314.432 234.011 314.112 234.365Q313.795 234.717 313.301 234.912Q312.808 235.107 312.173 235.107ZM315.683 235L315.683 229.546L316.914 229.546L316.914 230.471L316.98 230.471Q317.148 230.005 317.541 229.741Q317.934 229.475 318.481 229.475Q319.035 229.475 319.416 229.744Q319.8 230.01 319.956 230.471L320.012 230.471Q320.195 230.017 320.625 229.746Q321.057 229.475 321.653 229.475Q322.405 229.475 322.878 229.951Q323.354 230.425 323.354 231.338L323.354 235L322.068 235L322.068 231.538Q322.068 231.03 321.797 230.793Q321.526 230.557 321.135 230.557Q320.669 230.557 320.407 230.847Q320.149 231.135 320.149 231.597L320.149 235L318.889 235L318.889 231.487Q318.889 231.062 318.635 230.811Q318.381 230.557 317.973 230.557Q317.695 230.557 317.468 230.698Q317.241 230.84 317.104 231.094Q316.97 231.345 316.97 231.682L316.97 235L315.683 235ZM327.078 235.107Q326.255 235.107 325.662 234.763Q325.068 234.419 324.749 233.789Q324.429 233.159 324.429 232.305Q324.429 231.462 324.749 230.825Q325.068 230.188 325.647 229.832Q326.228 229.475 327.009 229.475Q327.512 229.475 327.961 229.636Q328.413 229.797 328.757 230.134Q329.104 230.471 329.302 230.991Q329.502 231.511 329.502 232.229L329.502 232.625L325.029 232.625L325.029 231.758L328.269 231.758Q328.267 231.387 328.11 231.099Q327.957 230.811 327.676 230.645Q327.397 230.476 327.026 230.476Q326.631 230.476 326.333 230.667Q326.035 230.854 325.869 231.162Q325.706 231.47 325.703 231.836L325.703 232.59Q325.703 233.066 325.876 233.406Q326.05 233.745 326.362 233.926Q326.675 234.104 327.095 234.104Q327.375 234.104 327.603 234.026Q327.832 233.948 327.996 233.792Q328.162 233.633 328.249 233.401L329.451 233.538Q329.336 234.011 329.016 234.365Q328.699 234.717 328.206 234.912Q327.712 235.107 327.078 235.107Z" fill="rgb(131,131,131)" fill-rule="nonzero" />
			<path id="Vector" d="M4.04613 4.81693C4.29717 5.06102 4.70484 5.06102 4.95587 4.81693L8.81173 1.06766C9.06276 0.82357 9.06276 0.427163 8.81173 0.18307C8.56069 -0.0610232 8.15302 -0.0610232 7.90199 0.18307L4.5 3.49102L1.09801 0.185022C0.846982 -0.0590707 0.439306 -0.0590707 0.188274 0.185022C-0.062758 0.429115 -0.062758 0.825522 0.188274 1.06962L4.04413 4.81888L4.04613 4.81693Z" fill="rgb(131,131,131)" fill-rule="nonzero" transform="matrix(-3.55618e-17,-1,1,-3.55618e-17,516,66)" />
		</g>
	</g>
</svg>
