<svg width="2532.468750" height="437.000000" viewBox="0 0 2532.47 437" fill="none" xmlns="http://www.w3.org/2000/svg" xmlns:xlink="http://www.w3.org/1999/xlink">
	<desc>
			Created with Pixso.
	</desc>
	<defs/>
	<path id="textLogo" d="M182.84 0L124.66 0C108.29 0 92.08 3.22 76.95 9.5C61.83 15.77 48.08 24.97 36.51 36.57C24.93 48.16 15.75 61.92 9.48 77.07C3.22 92.22 0 108.46 0 124.85C0 141.25 3.22 157.49 9.48 172.63C15.75 187.78 24.93 201.55 36.51 213.14C48.08 224.73 61.83 233.93 76.95 240.21C92.08 246.48 108.29 249.71 124.66 249.71L208.88 249.71C211.54 249.71 213.7 247.55 213.7 244.88L213.7 192.11C213.7 189.44 211.54 187.28 208.88 187.28L124.66 187.29C116.47 187.29 108.36 185.67 100.8 182.53C93.24 179.4 86.37 174.8 80.58 169C74.79 163.2 70.2 156.32 67.07 148.75C63.93 141.17 62.32 133.05 62.32 124.85C62.32 116.65 63.93 108.54 67.07 100.96C70.2 93.39 74.79 86.5 80.58 80.71C86.37 74.91 93.24 70.31 100.8 67.17C108.36 64.03 116.47 62.42 124.66 62.42L137.71 62.42C167.06 62.04 191.44 38.09 191.44 8.61C191.44 3.85 187.59 0 182.84 0Z" fill="#878CFF" fill-opacity="1.000000" fill-rule="nonzero"/>
	<path id="textLogo" d="M387.34 187.28L303.11 187.28C300.45 187.28 298.29 189.44 298.29 192.11L298.29 244.88C298.29 247.55 300.45 249.71 303.11 249.71L387.34 249.71C395.52 249.71 403.63 251.32 411.19 254.46C418.75 257.59 425.62 262.19 431.41 267.99C437.2 273.79 441.79 280.67 444.93 288.25C448.06 295.82 449.67 303.94 449.67 312.14C449.67 320.34 448.06 328.46 444.93 336.03C441.79 343.61 437.2 350.49 431.41 356.29C425.62 362.08 418.75 366.68 411.19 369.82C403.63 372.96 395.52 374.57 387.34 374.57L63.13 374.57C58.38 374.57 54.54 378.42 54.54 383.18C54.54 412.9 78.59 437 108.27 437L387.34 437C403.71 437 419.92 433.77 435.04 427.49C450.16 421.22 463.91 412.02 475.48 400.43C487.06 388.83 496.24 375.07 502.51 359.92C508.77 344.77 512 328.53 512 312.14C512 295.74 508.77 279.51 502.51 264.36C496.24 249.21 487.06 235.44 475.48 223.85C463.91 212.26 450.16 203.06 435.04 196.79C419.92 190.51 403.71 187.28 387.34 187.28Z" fill="#878CFF" fill-opacity="1.000000" fill-rule="evenodd"/>
	<path id="textLogo" d="M457.73 53.81C457.73 58.57 453.89 62.42 449.14 62.42C400.2 62.42 301.07 62.42 296.06 62.42C291.06 62.42 287.16 66.33 287.16 71.34C287.16 75.98 287.16 321.73 287.16 358.77C287.16 361.43 285 363.42 282.34 363.42L229.65 363.42C226.99 363.42 224.83 361.43 224.83 358.77C224.83 321.73 224.83 75.98 224.83 71.34C224.83 66.33 220.93 62.42 215.92 62.42C210.91 62.42 161.69 62.42 137.71 62.42C167.06 62.04 191.44 38.09 191.44 8.61C191.44 3.85 187.59 0 182.84 0L404 0C433.68 0 457.73 24.09 457.73 53.81Z" fill="#666CFF" fill-opacity="1.000000" fill-rule="evenodd"/>
	<path id="textLogo" d="M1622.7 324.5L1622.7 159.19L1558.15 159.19L1558.15 111.38L1742.51 111.38L1742.51 159.19L1677.96 159.19L1677.96 324.5L1622.7 324.5Z" fill="#666CFF" fill-opacity="1.000000" fill-rule="nonzero"/>
	<path id="textLogo" d="M1769.87 324.5L1769.87 105.61L1824.58 105.61L1824.58 193.43L1825.98 193.43C1828.14 190.01 1830.88 186.43 1834.21 182.68C1837.58 178.93 1842.04 175.71 1847.57 173.04C1853.15 170.32 1860.18 168.96 1868.66 168.96C1881.13 168.96 1890.95 171.8 1898.12 177.47C1905.34 183.14 1910.47 190.25 1913.52 198.78C1916.62 207.31 1918.16 215.91 1918.16 224.58L1918.16 324.5L1863.46 324.5L1863.46 235.48C1863.46 229.95 1862.01 224.84 1859.1 220.15C1856.24 215.42 1851.27 213.05 1844.19 213.05C1836.69 213.05 1831.54 215.46 1828.72 220.29C1825.96 225.07 1824.58 230.14 1824.58 235.48L1824.58 324.5L1769.87 324.5Z" fill="#666CFF" fill-opacity="1.000000" fill-rule="nonzero"/>
	<path id="textLogo" d="M2024.48 327.38C2010.46 327.38 1998.3 325.18 1987.99 320.77C1977.72 316.36 1969.24 310.36 1962.53 302.77C1955.83 295.18 1950.84 286.62 1947.56 277.1C1944.27 267.59 1942.63 257.84 1942.63 247.85C1942.63 238.29 1944.2 228.8 1947.34 219.38C1950.53 209.96 1955.38 201.47 1961.9 193.93C1968.46 186.33 1976.78 180.28 1986.86 175.78C1996.94 171.24 2008.89 168.96 2022.72 168.96C2037.67 168.96 2050.82 172.13 2062.17 178.46C2073.51 184.78 2082.34 193.95 2088.67 205.95C2095 217.95 2098.17 232.5 2098.17 249.61L2098.17 261.99L1997.69 261.99C1998.25 268.5 2000.78 274.27 2005.28 279.28C2009.78 284.25 2016.18 286.74 2024.48 286.74C2030.81 286.74 2035.59 285.64 2038.82 283.43C2042.1 281.23 2044.31 279.03 2045.43 276.82C2046.6 274.62 2047.19 273.52 2047.19 273.52L2097.32 273.52C2097.32 273.52 2096.83 275.35 2095.84 279C2094.9 282.66 2093.08 287.14 2090.36 292.43C2087.69 297.68 2083.65 303 2078.27 308.39C2072.92 313.74 2065.87 318.24 2057.1 321.89C2048.37 325.55 2037.51 327.38 2024.48 327.38ZM1997.41 231.75L2046.06 231.75C2045.88 223.88 2043.56 217.97 2039.1 214.03C2034.7 210.1 2028.86 208.13 2021.59 208.13C2015.45 208.13 2010.02 210.05 2005.28 213.89C2000.59 217.74 1997.97 223.69 1997.41 231.75Z" fill="#666CFF" fill-opacity="1.000000" fill-rule="nonzero"/>
	<path id="textLogo" d="M2122.67 324.5L2122.67 171.85L2177.37 171.85L2177.37 191.75L2179.12 191.75C2182.97 185.18 2188.25 179.75 2194.95 175.43C2201.64 171.12 2210.09 168.96 2220.26 168.96C2231.79 168.96 2240.82 171.61 2247.33 176.91C2253.89 182.16 2258.61 188.35 2261.47 195.47L2262.31 195.47C2264.64 191.82 2267.84 187.93 2271.87 183.8C2275.89 179.68 2280.99 176.18 2287.12 173.32C2293.27 170.42 2300.56 168.96 2309 168.96C2319.36 168.96 2327.7 171.28 2334.03 175.93C2340.36 180.52 2345 186.24 2347.95 193.08C2350.95 199.88 2352.45 206.72 2352.45 213.61L2352.45 324.5L2297.75 324.5L2297.75 231.19C2297.75 226.18 2296.38 221.91 2293.67 218.39C2291 214.83 2286.8 213.05 2281.08 213.05C2275.51 213.05 2271.39 214.83 2268.78 218.39C2266.2 221.91 2264.9 226.18 2264.9 231.19L2264.9 324.5L2210.21 324.5L2210.21 231.19C2210.21 226.18 2208.85 221.91 2206.12 218.39C2203.46 214.83 2199.24 213.05 2193.47 213.05C2187.94 213.05 2183.87 214.83 2181.24 218.39C2178.65 221.91 2177.37 226.18 2177.37 231.19L2177.37 324.5L2122.67 324.5Z" fill="#666CFF" fill-opacity="1.000000" fill-rule="nonzero"/>
	<path id="textLogo" d="M2458.78 327.38C2444.77 327.38 2432.6 325.18 2422.29 320.77C2412.02 316.36 2403.54 310.36 2396.84 302.77C2390.12 295.18 2385.13 286.62 2381.86 277.1C2378.58 267.59 2376.94 257.84 2376.94 247.85C2376.94 238.29 2378.51 228.8 2381.64 219.38C2384.84 209.96 2389.69 201.47 2396.2 193.93C2402.77 186.33 2411.09 180.28 2421.15 175.78C2431.24 171.24 2443.2 168.96 2457.02 168.96C2471.98 168.96 2485.12 172.13 2496.47 178.46C2507.81 184.78 2516.64 193.95 2522.98 205.95C2529.3 217.95 2532.47 232.5 2532.47 249.61L2532.47 261.99L2431.99 261.99C2432.55 268.5 2435.09 274.27 2439.59 279.28C2444.09 284.25 2450.48 286.74 2458.78 286.74C2465.11 286.74 2469.88 285.64 2473.12 283.43C2476.4 281.23 2478.61 279.03 2479.73 276.82C2480.9 274.62 2481.49 273.52 2481.49 273.52L2531.62 273.52C2531.62 273.52 2531.12 275.35 2530.14 279C2529.21 282.66 2527.37 287.14 2524.65 292.43C2521.99 297.68 2517.96 303 2512.57 308.39C2507.23 313.74 2500.17 318.24 2491.4 321.89C2482.69 325.55 2471.81 327.38 2458.78 327.38ZM2431.71 231.75L2480.37 231.75C2480.18 223.88 2477.86 217.97 2473.4 214.03C2469 210.1 2463.15 208.13 2455.89 208.13C2449.76 208.13 2444.32 210.05 2439.59 213.89C2434.89 217.74 2432.27 223.69 2431.71 231.75Z" fill="#666CFF" fill-opacity="1.000000" fill-rule="nonzero"/>
	<path id="textLogo" d="M731.9 327.38C719.25 327.38 708.35 325.76 699.21 322.53C690.11 319.25 682.59 315.07 676.64 310.01C670.68 304.9 665.93 299.46 662.36 293.7C658.8 287.93 656.15 282.52 654.42 277.46C652.68 272.35 651.53 268.15 650.97 264.87C650.41 261.59 650.13 259.95 650.13 259.95L684.37 259.95C684.37 259.95 684.65 261.26 685.21 263.89C685.82 266.46 686.97 269.63 688.66 273.38C690.39 277.13 693.04 280.88 696.6 284.63C700.17 288.38 704.88 291.54 710.74 294.12C716.6 296.7 724.03 297.99 733.03 297.99C746.48 297.99 757 294.82 764.6 288.5C772.19 282.17 775.99 274.1 775.99 264.31C775.99 255.87 773.15 249.31 767.48 244.62C761.81 239.89 753.51 236.28 742.59 233.79L714.32 227.18C703.78 224.84 694.03 221.42 685.07 216.92C676.17 212.42 668.97 206.32 663.49 198.64C658 190.95 655.26 181.25 655.26 169.53C655.26 156.87 658.38 146 664.61 136.9C670.89 127.76 679.54 120.75 690.56 115.88C701.62 110.96 714.25 108.5 728.46 108.5C742.28 108.5 753.7 110.56 762.7 114.68C771.75 118.81 778.94 123.85 784.28 129.8C789.68 135.75 793.66 141.75 796.24 147.8C798.86 153.85 800.55 158.93 801.3 163.06C802.05 167.18 802.43 169.25 802.43 169.25L769.66 169.25C769.66 169.25 769.26 167.68 768.46 164.53C767.71 161.35 765.93 157.64 763.12 153.42C760.35 149.21 756.14 145.53 750.46 142.39C744.79 139.2 737.18 137.6 727.61 137.6C714.35 137.6 704.43 140.67 697.87 146.82C691.35 152.96 688.1 159.78 688.1 167.28C688.1 174.54 690.89 180.35 696.46 184.71C702.04 189.03 709.54 192.24 718.96 194.35L749.2 201.52C760.31 204 770.41 207.75 779.5 212.77C788.64 217.74 795.91 224.3 801.3 232.46C806.69 240.61 809.39 250.55 809.39 262.27C809.39 274.18 806.46 285.07 800.6 294.96C794.74 304.85 786.04 312.73 774.51 318.59C762.98 324.45 748.78 327.38 731.9 327.38Z" fill="#878CFF" fill-opacity="1.000000" fill-rule="nonzero"/>
	<path id="textLogo" d="M843.62 380.96L843.62 171.85L876.46 171.85L876.46 194.63L878.22 194.63C880.14 191.72 882.97 188.25 886.72 184.22C890.47 180.19 895.56 176.65 901.98 173.6C908.4 170.51 916.51 168.96 926.31 168.96C937.65 168.96 947.64 171.24 956.26 175.78C964.89 180.28 972.04 186.33 977.71 193.93C983.38 201.47 987.6 209.96 990.36 219.38C993.18 228.8 994.58 238.41 994.58 248.21C994.58 257.96 993.18 267.54 990.36 276.96C987.6 286.39 983.38 294.89 977.71 302.49C972.04 310.03 964.89 316.08 956.26 320.63C947.64 325.13 937.65 327.38 926.31 327.38C916.51 327.38 908.4 325.85 901.98 322.81C895.56 319.71 890.47 316.15 886.72 312.12C882.97 308.09 880.14 304.62 878.22 301.71L876.46 301.71L876.46 380.96L843.62 380.96ZM876.46 248.21C876.46 256.83 878.03 265.08 881.17 272.96C884.36 280.83 889.07 287.32 895.3 292.43C901.58 297.5 909.41 300.03 918.79 300.03C928.4 300.03 936.32 297.5 942.55 292.43C948.79 287.32 953.5 280.83 956.68 272.96C959.87 265.08 961.47 256.83 961.47 248.21C961.47 239.53 959.87 231.26 956.68 223.39C953.5 215.51 948.79 209.04 942.55 203.98C936.32 198.87 928.4 196.32 918.79 196.32C909.41 196.32 901.58 198.87 895.3 203.98C889.07 209.04 884.36 215.51 881.17 223.39C878.03 231.26 876.46 239.53 876.46 248.21Z" fill="#878CFF" fill-opacity="1.000000" fill-rule="nonzero"/>
	<path id="textLogo" d="M1094.47 168.96C1104.07 168.96 1112.1 170.51 1118.52 173.6C1124.99 176.65 1130.12 180.19 1133.92 184.22C1137.76 188.25 1140.55 191.72 1142.29 194.63L1144.04 194.63L1144.04 171.85L1176.88 171.85L1176.88 324.5L1144.04 324.5L1144.04 301.71L1142.29 301.71C1140.55 304.62 1137.76 308.09 1133.92 312.12C1130.12 316.15 1124.99 319.71 1118.52 322.81C1112.1 325.85 1104.07 327.38 1094.47 327.38C1082.99 327.38 1072.96 325.13 1064.38 320.63C1055.85 316.08 1048.69 310.03 1042.93 302.49C1037.17 294.89 1032.88 286.39 1030.06 276.96C1027.3 267.54 1025.92 257.96 1025.92 248.21C1025.92 238.41 1027.3 228.8 1030.06 219.38C1032.88 209.96 1037.17 201.47 1042.93 193.93C1048.69 186.33 1055.85 180.28 1064.38 175.78C1072.96 171.24 1082.99 168.96 1094.47 168.96ZM1101.72 196.32C1092.29 196.32 1084.42 198.87 1078.09 203.98C1071.76 209.04 1067 215.51 1063.81 223.39C1060.68 231.26 1059.11 239.53 1059.11 248.21C1059.11 256.83 1060.68 265.08 1063.81 272.96C1067 280.83 1071.76 287.32 1078.09 292.43C1084.42 297.5 1092.29 300.03 1101.72 300.03C1111.09 300.03 1118.9 297.5 1125.13 292.43C1131.41 287.32 1136.12 280.83 1139.26 272.96C1142.44 265.08 1144.04 256.83 1144.04 248.21C1144.04 239.53 1142.44 231.26 1139.26 223.39C1136.12 215.51 1131.41 209.04 1125.13 203.98C1118.9 198.87 1111.09 196.32 1101.72 196.32Z" fill="#878CFF" fill-opacity="1.000000" fill-rule="nonzero"/>
	<path id="textLogo" d="M1289.47 327.38C1276.63 327.38 1265.4 325.13 1255.79 320.63C1246.18 316.08 1238.21 310.03 1231.89 302.49C1225.56 294.89 1220.8 286.39 1217.61 276.96C1214.42 267.54 1212.82 257.96 1212.82 248.21C1212.82 238.41 1214.42 228.8 1217.61 219.38C1220.8 209.96 1225.56 201.47 1231.89 193.93C1238.21 186.33 1246.18 180.28 1255.79 175.78C1265.4 171.24 1276.63 168.96 1289.47 168.96C1302.13 168.96 1312.63 170.84 1320.97 174.59C1329.36 178.34 1336.04 183 1341.01 188.58C1346.03 194.11 1349.78 199.67 1352.26 205.25C1354.75 210.82 1356.32 215.53 1356.97 219.38C1357.67 223.22 1358.03 225.14 1358.03 225.14L1326.88 225.14C1326.88 225.14 1326.46 223.71 1325.61 220.85C1324.77 217.95 1323.08 214.57 1320.55 210.73C1318.07 206.89 1314.36 203.53 1309.43 200.68C1304.56 197.77 1298 196.32 1289.75 196.32C1279.96 196.32 1271.8 198.78 1265.28 203.7C1258.77 208.57 1253.81 214.95 1250.44 222.82C1247.06 230.7 1245.39 239.16 1245.39 248.21C1245.39 257.21 1247.06 265.64 1250.44 273.52C1253.81 281.39 1258.77 287.79 1265.28 292.71C1271.8 297.59 1279.96 300.03 1289.75 300.03C1298 300.03 1304.56 298.6 1309.43 295.74C1314.36 292.83 1318.07 289.46 1320.55 285.61C1323.08 281.77 1324.77 278.42 1325.61 275.56C1326.46 272.65 1326.88 271.2 1326.88 271.2L1358.03 271.2C1358.03 271.2 1357.67 273.12 1356.97 276.96C1356.32 280.81 1354.75 285.52 1352.26 291.1C1349.78 296.68 1346.03 302.25 1341.01 307.83C1336.04 313.36 1329.36 318 1320.97 321.75C1312.63 325.5 1302.13 327.38 1289.47 327.38Z" fill="#878CFF" fill-opacity="1.000000" fill-rule="nonzero"/>
	<path id="textLogo" d="M1464.56 327.38C1451.71 327.38 1440.63 325.13 1431.3 320.63C1421.97 316.08 1414.29 310.03 1408.24 302.49C1402.19 294.89 1397.67 286.39 1394.67 276.96C1391.71 267.54 1390.24 257.96 1390.24 248.21C1390.24 238.6 1391.67 229.08 1394.53 219.66C1397.43 210.24 1401.86 201.71 1407.82 194.07C1413.77 186.38 1421.36 180.28 1430.6 175.78C1439.83 171.24 1450.68 168.96 1463.15 168.96C1476.56 168.96 1488.39 171.99 1498.66 178.03C1508.97 184.08 1517.06 193.01 1522.92 204.82C1528.78 216.64 1531.71 231.28 1531.71 248.77L1531.71 257.7L1423.43 257.7C1424.18 269.42 1428.09 279.5 1435.17 287.93C1442.29 296.37 1452.09 300.59 1464.56 300.59C1471.68 300.59 1477.54 299.39 1482.14 297C1486.73 294.61 1490.27 291.89 1492.75 288.85C1495.29 285.75 1497.07 283.06 1498.1 280.76C1499.18 278.42 1499.71 277.25 1499.71 277.25L1530.23 277.25C1530.23 277.25 1529.74 278.93 1528.75 282.31C1527.82 285.68 1526.06 289.88 1523.48 294.89C1520.9 299.86 1517.2 304.85 1512.37 309.87C1507.59 314.84 1501.26 319.01 1493.39 322.39C1485.51 325.71 1475.9 327.38 1464.56 327.38ZM1423.71 234.64L1500 234.64C1499.25 221.18 1495.26 211.29 1488.04 204.96C1480.82 198.64 1472.43 195.47 1462.87 195.47C1452.09 195.47 1443.14 198.99 1436.01 206.02C1428.93 213 1424.83 222.54 1423.71 234.64Z" fill="#878CFF" fill-opacity="1.000000" fill-rule="nonzero"/>
</svg>
